<?xml version="1.0" encoding="UTF-8" standalone="no"?>
<!-- Generator: Adobe Illustrator 12.0.0, SVG Export Plug-In . SVG Version: 6.00 Build 51448)  -->
<svg xmlns:dc="http://purl.org/dc/elements/1.1/" xmlns:cc="http://creativecommons.org/ns#" xmlns:rdf="http://www.w3.org/1999/02/22-rdf-syntax-ns#" xmlns:svg="http://www.w3.org/2000/svg" xmlns="http://www.w3.org/2000/svg" xmlns:sodipodi="http://sodipodi.sourceforge.net/DTD/sodipodi-0.dtd" xmlns:inkscape="http://www.inkscape.org/namespaces/inkscape" version="1.1" id="Layer_1" width="612" height="485.97656" viewBox="0.00024 -0.00024 612 485.97656" overflow="visible" enable-background="new 0.00024 -0.00024 612 485.97656" xml:space="preserve" sodipodi:version="0.32" inkscape:version="0.46" sodipodi:docname="CELL 2.svg" inkscape:output_extension="org.inkscape.output.svg.inkscape"><metadata id="metadata1059"><rdf:RDF><cc:Work rdf:about=""><dc:format>image/svg+xml</dc:format><dc:type rdf:resource="http://purl.org/dc/dcmitype/StillImage"/></cc:Work></rdf:RDF></metadata><defs id="defs1057"><inkscape:perspective sodipodi:type="inkscape:persp3d" inkscape:vp_x="0 : 242.98828 : 1" inkscape:vp_y="0 : 1000 : 0" inkscape:vp_z="612 : 242.98828 : 1" inkscape:persp3d-origin="306 : 161.99219 : 1" id="perspective1061"/>
	
	
	
	
	
	
	
	
	
	
	
	
	
	
	
	

	
	
	
	
	
	
	
	
	

	
	
	
	
	
	
	
	

	
	
	
	
	
	
	
	
	
	
	

	
	
	
	
	
	
	
	
	
	
	
	
	
	
	
	
	
	
	
	
	
	
	
	
	

	
	
	
	
	
	
	
	
	
	
	
	
	
	
	
	
	
	
	
	
	
	
	
	
	
	

	
	
	
	
	
	
	

	
	
	
	
	
	
	
	
	
	
	
	
	
	
	

	
	
	
	
	
	
	
	
	
	
	
	
	
	

	
	

	
	

	
	

	
	

	
	

	
	
	
	
	
	
	
	
	
	
	
	
	
	
</defs><sodipodi:namedview inkscape:window-height="715" inkscape:window-width="997" inkscape:pageshadow="2" inkscape:pageopacity="0.0" guidetolerance="10.0" gridtolerance="10.0" objecttolerance="10.0" borderopacity="1.0" bordercolor="#666666" pagecolor="#ffffff" id="base" showgrid="false" inkscape:zoom="0.88888889" inkscape:cx="270.86996" inkscape:cy="271.2331" inkscape:window-x="-1" inkscape:window-y="-1" inkscape:current-layer="Layer_1"/>
<path fill="#00421C" d="M224.23267,328.9314c8.89941-11.74023-17.46289-19.01758-12.85791-2.51953  C213.15405,332.78491,220.31226,334.09741,224.23267,328.9314z" id="path3"/>
<path fill="#006E3A" d="M199.55103,278.22827c-9.47754,1.88281-18.87646,13.19727-5.70361,17.75586  c7.30078,2.52539,17.42383-4.71875,14.99219-13.74609C206.57788,273.83569,204.8479,277.17749,199.55103,278.22827z" id="path5"/>
<path fill="#ED1C24" d="M209.88892,341.19702c-5.94922,3.12109-9.11475,10.49609-8.04834,17.00586  c1.07861,6.58594,9.87402,13.42969,16.51514,10.08984c3.99463-2.00781,5.9292-8.28516,6.80029-12.25195  C227.68091,344.53296,222.38745,334.64233,209.88892,341.19702z" id="path7"/>
<path fill="#004343" d="M103.05151,17.53491c0,0-14.63037,204.75049,35.08643,282.73828  c2.61328,4.09961,5.2749,8.16797,7.99365,12.19727c29.41162,43.58008,66.04004,82.55078,112.26758,108.41797  c26.78857,14.99219,56.00732,25.25586,86.12256,31.06445c15.07617,2.91016,29.78906,3.01953,44.99805,4.42383  c15.61914,1.43945,30.0957,2.25586,44.84961-3.94922c0.93164,4.03906,1.4707,8.48828,1.94922,12.45117  c-35.32813,5.38477-71.42188,5.34375-106.88867,1.32031c-17.77246-2.01367-35.42871-5.05469-52.85791-9.06445  c-8.6167-1.98242-17.17773-4.20508-25.66992-6.66602c-6.34033-1.83789-12.95947-2.21094-15.64795-8.8125  c-3.02637-7.42969-5.17725-10.17578-13.28906-10.69727c-5.54639-0.35742-10.88818,1.52148-16.39648,1.6582  c-8.00732,0.19531-15.63232-4.64063-22.65967-8.04883c-7.79688-3.7793-15.46826-7.82422-22.97217-12.1582  c-14.06689-8.125-27.58887-17.26953-40.06494-27.68945c-11.23193-9.38281-21.66602-19.82031-30.47314-31.5332  c-8.06348-10.72461-12.08447-22.46094-18.5249-33.87305C70.85962,319.28687-46.08521,112.05884,103.05151,17.53491z" id="path9"/>
<path fill="#006E3A" d="M226.99438,249.87476c-12.14209-5.45703-12.17725,10.77539-6.95166,16.79883  c5.96045,6.86914,12.50195,5.26953,12.06396-4.41602C231.91235,257.98218,232.07056,252.15601,226.99438,249.87476z" id="path11"/>
<radialGradient id="XMLID_416_" cx="259.48267" cy="316.90796" r="2.19385" gradientTransform="matrix(1 0 0 -1 -0.05518 484.27881)" gradientUnits="userSpaceOnUse">
	<stop offset="0" style="stop-color:#FFFFFF" id="stop14"/>
	<stop offset="1" style="stop-color:#C0272D" id="stop16"/>
</radialGradient>
<circle fill="url(#XMLID_416_)" cx="259.42749" cy="167.36963" r="2.1936" id="circle18"/>
<radialGradient id="XMLID_417_" cx="350.71313" cy="218.12476" r="2.19336" gradientTransform="matrix(1 0 0 -1 -0.05518 484.27881)" gradientUnits="userSpaceOnUse">
	<stop offset="0" style="stop-color:#FFFFFF" id="stop21"/>
	<stop offset="1" style="stop-color:#C0272D" id="stop23"/>
</radialGradient>
<circle fill="url(#XMLID_417_)" cx="350.65649" cy="266.15405" r="2.19336" id="circle25"/>
<radialGradient id="XMLID_418_" cx="246.34692" cy="359.7771" r="2.19336" gradientTransform="matrix(1 0 0 -1 -0.05518 484.27881)" gradientUnits="userSpaceOnUse">
	<stop offset="0" style="stop-color:#FFFFFF" id="stop28"/>
	<stop offset="1" style="stop-color:#C0272D" id="stop30"/>
</radialGradient>
<circle fill="url(#XMLID_418_)" cx="246.29175" cy="124.50073" r="2.19336" id="circle32"/>
<radialGradient id="XMLID_419_" cx="252.85181" cy="398.17749" r="2.19336" gradientTransform="matrix(1 0 0 -1 -0.05518 484.27881)" gradientUnits="userSpaceOnUse">
	<stop offset="0" style="stop-color:#FFFFFF" id="stop35"/>
	<stop offset="1" style="stop-color:#C0272D" id="stop37"/>
</radialGradient>
<circle fill="url(#XMLID_419_)" cx="252.79663" cy="86.10059" r="2.1936" id="circle39"/>
<radialGradient id="XMLID_420_" cx="261.63501" cy="414.10913" r="2.19336" gradientTransform="matrix(1 0 0 -1 -0.05518 484.27881)" gradientUnits="userSpaceOnUse">
	<stop offset="0" style="stop-color:#FFFFFF" id="stop42"/>
	<stop offset="1" style="stop-color:#C0272D" id="stop44"/>
</radialGradient>
<circle fill="url(#XMLID_420_)" cx="261.57983" cy="70.1687" r="2.19336" id="circle46"/>
<radialGradient id="XMLID_421_" cx="252.927" cy="343.23999" r="2.19336" gradientTransform="matrix(1 0 0 -1 -0.05518 484.27881)" gradientUnits="userSpaceOnUse">
	<stop offset="0" style="stop-color:#FFFFFF" id="stop49"/>
	<stop offset="1" style="stop-color:#C0272D" id="stop51"/>
</radialGradient>
<circle fill="url(#XMLID_421_)" cx="252.87183" cy="141.03906" r="2.1936" id="circle53"/>
<radialGradient id="XMLID_422_" cx="250.65845" cy="386.69116" r="2.19336" gradientTransform="matrix(1 0 0 -1 -0.05518 484.27881)" gradientUnits="userSpaceOnUse">
	<stop offset="0" style="stop-color:#FFFFFF" id="stop56"/>
	<stop offset="1" style="stop-color:#C0272D" id="stop58"/>
</radialGradient>
<circle fill="url(#XMLID_422_)" cx="250.60327" cy="97.58667" r="2.19336" id="circle60"/>
<radialGradient id="XMLID_423_" cx="286.823" cy="251.51343" r="2.1936" gradientTransform="matrix(1 0 0 -1 -0.05518 484.27881)" gradientUnits="userSpaceOnUse">
	<stop offset="0" style="stop-color:#FFFFFF" id="stop63"/>
	<stop offset="1" style="stop-color:#C0272D" id="stop65"/>
</radialGradient>
<circle fill="url(#XMLID_423_)" cx="286.76831" cy="232.76587" r="2.19336" id="circle67"/>
<radialGradient id="XMLID_424_" cx="318.50024" cy="216.32202" r="2.19336" gradientTransform="matrix(1 0 0 -1 -0.05518 484.27881)" gradientUnits="userSpaceOnUse">
	<stop offset="0" style="stop-color:#FFFFFF" id="stop70"/>
	<stop offset="1" style="stop-color:#C0272D" id="stop72"/>
</radialGradient>
<circle fill="url(#XMLID_424_)" cx="318.4436" cy="267.95679" r="2.19336" id="circle74"/>
<radialGradient id="XMLID_425_" cx="557.38306" cy="310.00366" r="2.19336" gradientTransform="matrix(1 0 0 -1 -0.05518 484.27881)" gradientUnits="userSpaceOnUse">
	<stop offset="0" style="stop-color:#FFFFFF" id="stop77"/>
	<stop offset="1" style="stop-color:#C0272D" id="stop79"/>
</radialGradient>
<circle fill="url(#XMLID_425_)" cx="557.32642" cy="174.27466" r="2.19336" id="circle81"/>
<radialGradient id="XMLID_426_" cx="453.8772" cy="238.44116" r="2.19385" gradientTransform="matrix(1 0 0 -1 -0.05518 484.27881)" gradientUnits="userSpaceOnUse">
	<stop offset="0" style="stop-color:#FFFFFF" id="stop84"/>
	<stop offset="1" style="stop-color:#C0272D" id="stop86"/>
</radialGradient>
<circle fill="url(#XMLID_426_)" cx="453.82251" cy="245.83765" r="2.19336" id="circle88"/>
<radialGradient id="XMLID_427_" cx="483.44946" cy="247.19702" r="2.19336" gradientTransform="matrix(1 0 0 -1 -0.05518 484.27881)" gradientUnits="userSpaceOnUse">
	<stop offset="0" style="stop-color:#FFFFFF" id="stop91"/>
	<stop offset="1" style="stop-color:#C0272D" id="stop93"/>
</radialGradient>
<circle fill="url(#XMLID_427_)" cx="483.39478" cy="237.08228" r="2.19336" id="circle95"/>
<radialGradient id="XMLID_428_" cx="511.80103" cy="262.36694" r="2.19336" gradientTransform="matrix(1 0 0 -1 -0.05518 484.27881)" gradientUnits="userSpaceOnUse">
	<stop offset="0" style="stop-color:#FFFFFF" id="stop98"/>
	<stop offset="1" style="stop-color:#C0272D" id="stop100"/>
</radialGradient>
<circle fill="url(#XMLID_428_)" cx="511.74438" cy="221.91211" r="2.1936" id="circle102"/>
<path fill="#6D2224" d="M253.66675,112.72729c-4.14014-3.60156-12.89795,0.05615-17.37207,1.01318  c-4.46387,0.95557-5.84277,1.06299-6.65088,6.22852c-1.08154,6.91455,5.23438,14.20703,2.40479,20.96924  c-2.91895,6.97607-10.23779,8.35205-14.04785,1.4043c-3.19092-5.81982,0.375-9.54102,3.50732-14.4458  c3.87158-6.06543,0.46924-10.54443,5.52246-15.94727c5.53027-5.91211,11.21094-5.46338,18.34229-6.95166  c9.13574-1.90771,11.02539-8.68604,13.07568-17.38232c-3.06982,2.45801-6.43555,2.1665-8.70215,3.54199  c-2.72168,1.65186-4.48779,4.76807-6.97314,6.69092c-11.59082,8.96875-6.82129-7.39307-4.58496-14.20313  c0.61768-1.87988,2.20361-2.51709,2.50537-4.6626c0.1582-1.12354-1.16406-3.40381-1.0249-4.54883  c0.43115-3.56152,1.7002-5.60254,4.43604-8.31982c2.87988-2.86084,7.08691-4.27246,9.43994-7.58838  c-3.82764-1.79834-7.96826-4.21924-11.81152-4.4126c-2.53125-0.12646-5.57373,1.14746-5.45557-2.82617  c-8.24561-2.31543-12.66357-3.2417-20.72266,0.73877c-7.2915,3.6001-13.58691,8.81543-20.22412,13.43848  c-5.3125,3.7002-21.37207,13.9751-15.46826,21.1543c3.1709,3.85645,12.14258,2.79248,16.13232,1.30127  c4.99902-1.86768,7.73145-6.49707,10.25439-11.03174c2.60645-4.68555,3.33496-6.20801,8.57861-9.78174  c3.03857-2.07178,7.2998-6.0874,10.90527-6.46338c10.82129-1.12695-5.09521,10.52441-3.9292,14.62207  c0.78174,2.74561,5.12109,3.13135,6.81348,4.22607c6.7373,4.35645,3.51953,8.6582,1.80811,16.24658  c-1.04346,4.62402-7.68359,19.8418-14.66113,17.82764c-8.54785-2.46777,2.86963-12.30664,3.92627-15.5874  c2.34668-7.28564-9.93311-7.43506-14.79541-6.69922c-6.39258,0.96826-8.76611,4.81152-3.87646,9.52881  c2.33252,2.24951,3.40234,0.42529,3.42139,4.01074c0.01563,3.05127-1.87793,4.27832-1.09473,7.79688  c1.22168,5.48633,4.80566,9.58936,4.51855,15.58545c-0.29443,6.14014-4.37939,11.11182-4.92285,17.07324  c-0.84766,9.29834,7.68164,10.0332,9.82373,16.69434c2.12256,6.6001-7.96484,13.646-10.83984,18.87158  c0.76465,2.11377,2.07471,3.92041,3.83496,5.14551c-1.4502-1.00879,9.16846-12.15674,10.67285-12.81689  c7.82715-3.43262,5.97656,2.03564,7.48389,8.07617c3.57178,14.31152,16.64551,21.82568,28.66309,28.42383  c3.98975,2.19141,13.14404,4.50098,15.52246,8.47021c3.81641,6.37158-3.94043,16.42529-5.18018,22.68604  c-1.40771,7.1167,1.23389,12.90381,6.46631,17.95654c1.5498-0.47656,3.11377-1.64258,3.88135-2.86523  c-6.8833-4.19141-7.62305-15.56299-2.71045-21.61865c6.18994-7.62891,21.58398-10.53613,9.78857-23.15625  c-2.51172-2.68652-8.74512-2.57227-12.18115-4.06299c-5.15869-2.24023-10.93066-4.2915-15.45947-7.70264  c-3.75977-2.83105-7.17334-5.26074-9.76953-9.25928c-2.00879-3.09229-1.50244-5.87646-2.89404-8.77344  c-2.21094-4.604-7.02686-5.45068-8.32813-11.20996c-3.37012-14.91797,12.58154-23.51953,25.22314-19.93701  c0.97314-1.13379,1.95752-3.37207,1.99463-4.80957c-11.72412-0.39111-24.55615,1.33838-20.26367-15.22168  c0.63428-2.44385,1.52441-5.04199,3.87744-6.36133c3.50439-1.96582,3.93115,0.50537,6.59082,1.11865  c3.43701,0.79199,4.01758,1.50244,5.61621-1.92676C255.85083,120.64038,255.65649,114.45728,253.66675,112.72729z" id="path104"/>
<path fill="#971B1E" d="M276.31958,60.94458c-0.90723,0.43359-1.81445,0.97803-2.7207,1.65186  c-6.62695,4.92969-10.17285,14.18311-13.00732,21.64014c-3.50684,9.22705-8.25098,18.83545-7.91846,28.83154  c0.42334,12.74365,4.69971,23.21582-2.04688,35.19092c-2.63525,4.67627-7.01465,8.00732-7.60596,13.58594  c-0.45752,4.31641,1.55029,10.2002-1.0249,14.04688c-3.05518,4.56689-12.6001,6.12744-17.56396,7.47803  c-5.65967,1.54053-9.47998,1.8501-14.92139-0.69092c-1.31689-0.61523-14.76855-11.16016-9.53174-13.24609  c2.11182-0.84082,4.25537-1.34326,6.48047-1.51074c0.19873-3.2998-3.11719-16.10645-7.87109-16.19385  c-2.68506-0.04883-4.61279,4.97998-8.34766,5.21387c-4.58008,0.28223-13.21387-6.47266-13.25635-11.42969  c-0.05713-6.50488,6.4165-5.16748,10.54834-8.13672c2.43604-1.75146,2.66162-5.02832,5.30908-6.43164  c3.12256-1.65479,6.00146,1.49951,8.49561-2.57031c3.49951-5.71143-3.8916-9.34717-8.57275-9.25635  c-2.55127,0.04932-5.57959,0.625-7.6875,2.27197c-3.29492,2.57471-1.38867,3.81494-2.56836,5.54199  c-2.64648,3.87451-6.91357,6.02979-5.88037-1.80518c0.53467-4.05566,3.50781-8.91748,5.70508-11.7002  c7.25439-9.18701,10.41895-17.13232,14.38672-27.79199c-1.89648,2.83984-16.74463,4.88672-17.39404,1.25  c1.09766,6.15186,1.90869,14.09473,0.72754,20.2417c-1.09424,5.68652-4.90479,10.88818-7.31543,16.06396  c-7.20752,15.4834-6.78662,29.13086,5.68457,42.08252c6.42578,6.67285,18.23389,11.19873,22.62451,19.63623  c7.97461,15.32471-4.68896,34.38477,11.604,47.52148c11.03174,8.89551,27.68896-3.95361,39.99463-0.92627  c6.82227,1.67822,7.7749,6.56689,11.84375,11.14307c1.65576,1.86279,3.38721,2.23584,5.13525,3.63232  c3.60449,2.87891,5.37402,8.43359,9.5,10.66016c4.34912,2.34766,8.64258-3.04492,11.57861,1.26172  c2.48535,3.64648-2.06689,8.99414-5.68555,9.26953c-4.13086,0.3125-7.01367-4.08203-9.22412-7.06445  c-0.72803-0.98242-2.48291,2.69531-2.57324,3.03711c-0.57471,2.18555,1.79834,5.0332,3.021,6.53516  c3.38818,4.16797,9.1543,5.25977,8.02832,12.31055c-4.07031,1.23047-8.83691,4.42188-12.8999,4.51758  c-4.03564,0.0957-6.7373-3.25391-11.04883-1.98242c-10.87695,3.20898,2.17627,28.27148,12.99854,26.02734  c6.60205-1.36914-5.63672-14.37695,9.13281-16.91016c6.32861-1.08594,7.48047,0.10352,10.34717-6.48242  c0.78613-1.81055,1.92041-7.04297,3.9165-7.82031c3.42822-1.33594,4.36328,4.50781,7.27637,6.56641  c4.76025-2.23242,2.16748-18.04688-0.27441-22.04883c-1.78223-2.91797-4.93994-2.06641-5.04736-7.09375  c-0.08105-3.76172,2.20654-7.58398,6.25635-7.25c-0.90234-4.07813-4.98926-10.08643-9.45898-10.84326  c-3.86426-0.65332-7.40771,3.88477-11.58789,3.78613c-6.64014-0.15723-9.75684-5.60059-13.17383-10.36621  c-5.33008-7.43408-11.83057-11.0918-20.95947-12.17041c-7.43701-0.87891-40.03174,4.8457-33.04883-13.51855  c1.36426-3.58789,2.93994-2.83203,5.71875-3.98242c3.98975-1.65137,4.87158-2.86035,7.84619-5.42139  c5.27344-4.54102,10.75586-2.82178,16.09668-6.0874c2.86768-1.75244,2.87598-4.43701,6.3252-3.93262  c1.90576,0.27979,6.01367,4.83154,7.82715,6.13184c3.86816,2.77539,9.47559,4.93359,12.67725,8.74805  c-1.00244-3.47266-3.7749-9.33643-6.31836-11.91992c-2.07861-2.11182-5.65332-3.15137-7.74023-5.48193  c-2.2168-2.47705-2.09717-4.47217-3.03564-7.31104c-1.40918-4.26025-4.17773-7.77344-3.30176-12.67334  c0.49805-2.7876,2.82959-8.35205,5.75-9.21143c3.0542,18.34229,11.73389,37.68994,20.78906,53.85596  c10.15332,18.125,22.96729,34.97998,39.74268,47.46436c4.02539,2.99805,8.93555,7.42188,14.17383,7.80664  c2.75,0.20117,8.32813-1.36523,3.71484-4.69531c13.81641,9.97266,32.69727,13.64844,49.11719,16.2793  c6.23047,0.99609,13.75781-0.13477,19.82227-1.52734c3.30664-0.75781,12.70508-3.48438,12.57031-7.99805  c-0.14453-4.89844-12.53906-7.98242-16.07422-9.44727c-2.20313-0.91211,5.51367-3.77539,5.90234-3.90234  c3.51758-1.14258,8.57422-1.88867,11.33008-4.55469c8.56445-8.28857,7.41211-19.36377-2.5625-25.84131  c-8.20898-5.33203-17.13281-8.56787-24.89453-14.93701c-9.25195-7.59033-18.42578-15.91553-25.99805-25.23389  c-12.43555-15.31104-9.82227-39.81299-11.7168-58.4751c-0.64453-6.35547-1.07227-13.44727-5.17578-18.5708  c-5.98633-7.47314-13.43555-13.43945-19.13281-21.31738c-2.23633-3.09326-4.34961-5.57129-6.66602-9.03467L276.31958,60.94458z" id="path106"/>
<path fill="#FFC20E" d="M317.51196,75.08325l254.05469,67.15625c0,0-49.33398,122.61572-161.76758,103.11963  c-20.38086-3.53564-40.15625-11.30908-56.125-24.67871c-9.23047-7.72949-17.32617-17.05811-23.54102-27.375  c-2.84375-4.72119-5.23047-9.70605-6.05469-15.20264c-0.77734-5.20313,0.45898-10.51904-0.7168-15.69873  c-1.58203-6.97168-7.89453-11.59912-9.69531-18.43555c-2.03906-7.74463-1.32227-16.20898-1.42383-24.13135  c-0.07422-5.84863,0.23535-11.6377,0.7207-17.45801C312.96313,102.37622,314.26294,86.78052,317.51196,75.08325z" id="path108"/>
<path fill="#F7931D" d="M570.64868,142.9353c-1.30664,1.30615-3.18359,2.16797-4.79102,3.01904  c-9.9043,5.23877-20.72656,8.96094-31.4043,12.24463c-8,2.46094-16.11133,4.56885-24.29102,6.34326  c-4.53516,0.9834-9.22461,2.20947-13.8457,2.66943c-1.69141,0.16748-3.50391-0.22754-5.07227,0.51025  c-1.27148,0.59766-2.04688,1.90576-3.38086,2.48389c-1.80078,0.77979-3.74609,0.13525-4.67578-1.75635  c-32.47656,6.59619-68.99805,2.93506-100.70313-6.02539c-7.52539-2.12695-16.29297-4.33838-22.51758-9.26709  c-1.60938,3.32764-4.50977,3.83789-6.80469,1.07861c-1.16602-1.40234-1.37305-2.85498-2.07227-4.33252  c-0.93359-1.97607-3.09766-2.21729-4.89453-3.06641c-2.625-1.24121-5.20703-2.84619-7.52734-4.59131  c-4.09961-3.08008-7.92773-6.53662-11.28711-10.41406c-5.33594-6.15869-9.41602-13.37305-11.58398-21.24609  c-2.2041-8.0083-2.40918-16.49805-0.85645-24.64453c0.1123-0.5874,2.39941-10.375,3.02832-10.20752  C318.17603,75.78735,570.64868,142.9353,570.64868,142.9353z" id="path110"/>
<path fill="#FFF200" d="M566.42407,139.42358c-0.18945-0.05029-2.09375,1.49561-2.34961,1.65186  c-8.4707,5.20361-18.47852,8.50391-27.85742,11.58496c-7.63281,2.50732-15.38086,4.66553-23.20117,6.50781  c-8.19727,1.93164-16.97266,4.37158-25.35938,4.91309c1.54297,3.48633-5.75,4.89063-4.21289,0.96826  c-2.82813-0.3291-6.81641,0.31348-9.67969,0.58545c-3.97461,0.37793-7.95898,0.66553-11.94727,0.86719  c-8.33008,0.42285-16.68359,0.46094-25.01953,0.08203c-17.68555-0.80322-35.29883-3.49658-52.34375-8.31396  c-4.52344-1.27734-9.00391-2.71045-13.41406-4.33838c-2.35156-0.86816-8.91016-2.19727-10.35938-4.34961  c1.02148,1.51563,0.13477,4.70898-2.4668,4.16504c-3.93164-0.81934-1.2168-4.13184-2.30469-6.25  c-0.98438-1.91406-6.83984-3.9707-8.77148-5.21875c-5.03711-3.25684-9.78125-7.00391-13.92969-11.34766  c-6.38281-6.68604-11.23047-14.7876-13.50781-23.78223c-1.91406-7.56104-2.00781-15.52832-0.50391-23.16992  c0.10742-0.54834,2.28516-9.7002,2.86523-9.5459C322.1897,74.46704,566.09595,139.33618,566.42407,139.42358z" id="path112"/>
<path fill="#FFC20E" d="M389.0022,95.23022c0,0-4.54883,18.19775,20.79688,26.646  c25.3457,8.44873,65.31445,0.97461,69.53906-3.24951c4.22266-4.22461-3.89844-54.5918-31.84375-58.49121  C419.54712,56.23608,395.5022,67.93433,389.0022,95.23022z" id="path114"/>
<path style="fill:#f7931d" id="path118" d="M 351.92993,200.01587 C 353.75806,193.54126 343.34985,190.59692 345.00415,198.21851 C 345.72876,201.56567 350.61938,204.65601 351.92993,200.01587 z"/><path style="fill:#fff200" id="path120" d="M 351.42407,198.78589 C 352.12915,195.61109 346.61548,192.77857 347.67798,197.5647 C 348.17603,199.81226 350.6311,202.35425 351.42407,198.78589 z"/>
<path fill="#F7931D" d="M395.55493,238.0354c1.82813-6.47461-8.58008-9.41943-6.92773-1.79785  C389.35376,239.58521,394.24438,242.67505,395.55493,238.0354z" id="path122"/>
<path fill="#FFF200" d="M393.92993,235.55103c0.70703-3.17627-4.81055-6.00781-3.74805-1.22266  C390.68188,236.57544,393.13501,239.11841,393.92993,235.55103z" id="path124"/>
<path fill="#F7931D" d="M327.16821,150.93335c1.82617-6.47461-8.58008-9.41943-6.92773-1.79736  C320.96704,152.48315,325.85767,155.57349,327.16821,150.93335z" id="path126"/>
<path fill="#FFF200" d="M326.6604,150.92212c0.70703-3.17529-4.80859-6.00732-3.74609-1.22168  C323.41431,151.948,325.86743,154.48999,326.6604,150.92212z" id="path128"/>
<path style="fill:#f7931d" id="path132" d="M 425.04321,210.7395 C 426.87134,204.26489 416.46508,201.32007 418.11743,208.94214 C 418.84204,212.28931 423.73267,215.37964 425.04321,210.7395 z"/><path style="fill:#fff200" id="path134" d="M 424.53735,209.50952 C 425.24243,206.33423 419.72876,203.5022 420.79126,208.28784 C 421.29126,210.5354 423.74438,213.07739 424.53735,209.50952 z"/>
<path style="fill:#f7931d" id="path138" d="M 388.05493,185.74341 C 389.88306,179.2688 379.47485,176.32544 381.12915,183.94702 C 381.85376,187.29419 386.74438,190.38354 388.05493,185.74341 z"/><path style="fill:#fff200" id="path140" d="M 387.54907,184.5144 C 388.25415,181.33862 382.74048,178.50708 383.80298,183.29223 C 384.30103,185.53979 386.7561,188.08228 387.54907,184.5144 z"/>
<path fill="#F7931D" d="M469.69751,236.43579c1.82813-6.47461-8.57813-9.41797-6.92578-1.7959  C463.49634,237.98657,468.38892,241.07642,469.69751,236.43579z" id="path142"/>
<path fill="#FFF200" d="M467.09985,234.92603c0.70508-3.1748-4.81055-6.00732-3.74805-1.22168  C463.85181,235.95239,466.30493,238.49438,467.09985,234.92603z" id="path144"/>
<path fill="#F7931D" d="M504.5686,210.7395c1.82813-6.47461-8.58008-9.41943-6.92773-1.79736  C498.36743,212.28931,503.25806,215.37964,504.5686,210.7395z" id="path146"/>
<path fill="#FFF200" d="M501.96899,208.25464c0.70703-3.17578-4.80859-6.00732-3.74609-1.22217  C498.72095,209.28003,501.17603,211.82251,501.96899,208.25464z" id="path148"/>
<path style="fill:#f7931d" id="path152" d="M 462.74829,189.20679 C 464.57642,182.73218 454.16821,179.78882 455.82251,187.4104 C 456.54712,190.75757 461.43774,193.84692 462.74829,189.20679 z"/><path style="fill:#fff200" id="path154" d="M 462.24243,187.97778 C 462.94946,184.802 457.43188,181.97046 458.49438,186.75561 C 458.99438,189.00317 461.44751,191.54614 462.24243,187.97778 z"/>
<path style="fill:#f7931d" id="path158" d="M 532.32056,171.25122 C 529.98658,177.56079 540.12915,181.3186 539.08423,173.59009 C 538.62524,170.19604 533.99438,166.72876 532.32056,171.25122 z"/><path style="fill:#fff200" id="path160" d="M 532.72876,172.51636 C 531.77563,175.62622 537.04712,178.88501 536.36743,174.03101 C 536.04712,171.75073 533.80298,169.02222 532.72876,172.51636 z"/>
<radialGradient id="XMLID_429_" cx="365.82251" cy="304.39819" r="2.19336" gradientTransform="matrix(1 0 0 -1 -0.05518 484.27881)" gradientUnits="userSpaceOnUse">
	<stop offset="0" style="stop-color:#FFFFFF" id="stop163"/>
	<stop offset="1" style="stop-color:#C0272D" id="stop165"/>
</radialGradient>
<circle fill="url(#XMLID_429_)" cx="365.76782" cy="179.88013" r="2.19336" id="circle167"/>
<radialGradient id="XMLID_430_" cx="361.92407" cy="263.94116" r="2.19336" gradientTransform="matrix(1 0 0 -1 -0.05518 484.27881)" gradientUnits="userSpaceOnUse">
	<stop offset="0" style="stop-color:#FFFFFF" id="stop170"/>
	<stop offset="1" style="stop-color:#C0272D" id="stop172"/>
</radialGradient>
<circle fill="url(#XMLID_430_)" cx="361.86743" cy="220.33667" r="2.19336" id="circle174"/>
<radialGradient id="XMLID_431_" cx="390.1936" cy="273.20288" r="2.19385" gradientTransform="matrix(1 0 0 -1 -0.05518 484.27881)" gradientUnits="userSpaceOnUse">
	<stop offset="0" style="stop-color:#FFFFFF" id="stop177"/>
	<stop offset="1" style="stop-color:#C0272D" id="stop179"/>
</radialGradient>
<circle fill="url(#XMLID_431_)" cx="390.13892" cy="211.07544" r="2.19336" id="circle181"/>
<radialGradient id="XMLID_432_" cx="411.39673" cy="248.72827" r="2.19409" gradientTransform="matrix(1 0 0 -1 -0.05518 484.27881)" gradientUnits="userSpaceOnUse">
	<stop offset="0" style="stop-color:#FFFFFF" id="stop184"/>
	<stop offset="1" style="stop-color:#C0272D" id="stop186"/>
</radialGradient>
<circle fill="url(#XMLID_432_)" cx="411.34204" cy="235.55054" r="2.19385" id="circle188"/>
<radialGradient id="XMLID_433_" cx="485.24243" cy="269.79077" r="2.19336" gradientTransform="matrix(1 0 0 -1 -0.05518 484.27881)" gradientUnits="userSpaceOnUse">
	<stop offset="0" style="stop-color:#FFFFFF" id="stop191"/>
	<stop offset="1" style="stop-color:#C0272D" id="stop193"/>
</radialGradient>
<circle fill="url(#XMLID_433_)" cx="485.18774" cy="214.48755" r="2.19336" id="circle195"/>
<radialGradient id="XMLID_434_" cx="443.5686" cy="292.70093" r="2.19336" gradientTransform="matrix(1 0 0 -1 -0.05518 484.27881)" gradientUnits="userSpaceOnUse">
	<stop offset="0" style="stop-color:#FFFFFF" id="stop198"/>
	<stop offset="1" style="stop-color:#C0272D" id="stop200"/>
</radialGradient>
<circle fill="url(#XMLID_434_)" cx="443.51196" cy="191.57837" r="2.19336" id="circle202"/>
<radialGradient id="XMLID_435_" cx="502.30298" cy="300.01147" r="2.19336" gradientTransform="matrix(1 0 0 -1 -0.05518 484.27881)" gradientUnits="userSpaceOnUse">
	<stop offset="0" style="stop-color:#FFFFFF" id="stop205"/>
	<stop offset="1" style="stop-color:#C0272D" id="stop207"/>
</radialGradient>
<circle fill="url(#XMLID_435_)" cx="502.24829" cy="184.26685" r="2.19336" id="circle209"/>
<radialGradient id="XMLID_436_" cx="434.55103" cy="277.5896" r="2.19336" gradientTransform="matrix(1 0 0 -1 -0.05518 484.27881)" gradientUnits="userSpaceOnUse">
	<stop offset="0" style="stop-color:#FFFFFF" id="stop212"/>
	<stop offset="1" style="stop-color:#C0272D" id="stop214"/>
</radialGradient>
<circle fill="url(#XMLID_436_)" cx="434.49438" cy="206.68872" r="2.19336" id="circle216"/>
<radialGradient id="XMLID_437_" cx="445.76196" cy="245.90796" r="2.19336" gradientTransform="matrix(1 0 0 -1 -0.05518 484.27881)" gradientUnits="userSpaceOnUse">
	<stop offset="0" style="stop-color:#FFFFFF" id="stop219"/>
	<stop offset="1" style="stop-color:#C0272D" id="stop221"/>
</radialGradient>
<circle fill="url(#XMLID_437_)" cx="445.70532" cy="238.37134" r="2.19336" id="circle223"/>
<radialGradient id="XMLID_438_" cx="502.30298" cy="289.77515" r="2.19336" gradientTransform="matrix(1 0 0 -1 -0.05518 484.27881)" gradientUnits="userSpaceOnUse">
	<stop offset="0" style="stop-color:#FFFFFF" id="stop226"/>
	<stop offset="1" style="stop-color:#C0272D" id="stop228"/>
</radialGradient>
<circle fill="url(#XMLID_438_)" cx="502.24829" cy="194.50293" r="2.1936" id="circle230"/>
<radialGradient id="XMLID_439_" cx="426.7522" cy="263.94116" r="2.19336" gradientTransform="matrix(1 0 0 -1 -0.05518 484.27881)" gradientUnits="userSpaceOnUse">
	<stop offset="0" style="stop-color:#FFFFFF" id="stop233"/>
	<stop offset="1" style="stop-color:#C0272D" id="stop235"/>
</radialGradient>
<circle fill="url(#XMLID_439_)" cx="426.69556" cy="220.33667" r="2.19336" id="circle237"/>
<radialGradient id="XMLID_440_" cx="369.96704" cy="282.95093" r="2.19336" gradientTransform="matrix(1 0 0 -1 -0.05518 484.27881)" gradientUnits="userSpaceOnUse">
	<stop offset="0" style="stop-color:#FFFFFF" id="stop240"/>
	<stop offset="1" style="stop-color:#C0272D" id="stop242"/>
</radialGradient>
<circle fill="url(#XMLID_440_)" cx="369.9104" cy="201.3269" r="2.19336" id="circle244"/>
<radialGradient id="XMLID_441_" cx="480.85571" cy="305.86108" r="2.19336" gradientTransform="matrix(1 0 0 -1 -0.05518 484.27881)" gradientUnits="userSpaceOnUse">
	<stop offset="0" style="stop-color:#FFFFFF" id="stop247"/>
	<stop offset="1" style="stop-color:#C0272D" id="stop249"/>
</radialGradient>
<circle fill="url(#XMLID_441_)" cx="480.80103" cy="178.41772" r="2.19336" id="circle251"/>
<radialGradient id="XMLID_442_" cx="418.95337" cy="301.47437" r="2.19336" gradientTransform="matrix(1 0 0 -1 -0.05518 484.27881)" gradientUnits="userSpaceOnUse">
	<stop offset="0" style="stop-color:#FFFFFF" id="stop254"/>
	<stop offset="1" style="stop-color:#C0272D" id="stop256"/>
</radialGradient>
<circle fill="url(#XMLID_442_)" cx="418.89673" cy="182.80444" r="2.19336" id="circle258"/>
<radialGradient id="XMLID_443_" cx="404.08618" cy="265.89233" r="2.19336" gradientTransform="matrix(1 0 0 -1 -0.05518 484.27881)" gradientUnits="userSpaceOnUse">
	<stop offset="0" style="stop-color:#FFFFFF" id="stop261"/>
	<stop offset="1" style="stop-color:#C0272D" id="stop263"/>
</radialGradient>
<circle fill="url(#XMLID_443_)" cx="404.03149" cy="218.38696" r="2.19336" id="circle265"/>
<radialGradient id="XMLID_444_" cx="397.01782" cy="308.29858" r="2.19336" gradientTransform="matrix(1 0 0 -1 -0.05518 484.27881)" gradientUnits="userSpaceOnUse">
	<stop offset="0" style="stop-color:#FFFFFF" id="stop268"/>
	<stop offset="1" style="stop-color:#C0272D" id="stop270"/>
</radialGradient>
<circle fill="url(#XMLID_444_)" cx="396.96313" cy="175.98071" r="2.19336" id="circle272"/>
<radialGradient id="XMLID_445_" cx="281.0105" cy="388.72437" r="2.19336" gradientTransform="matrix(1 0 0 -1 -0.05518 484.27881)" gradientUnits="userSpaceOnUse">
	<stop offset="0" style="stop-color:#FFFFFF" id="stop275"/>
	<stop offset="1" style="stop-color:#C0272D" id="stop277"/>
</radialGradient>
<circle fill="url(#XMLID_445_)" cx="280.95532" cy="95.55493" r="2.19336" id="circle279"/>
<radialGradient id="XMLID_446_" cx="529.72095" cy="314.99976" r="2.19336" gradientTransform="matrix(1 0 0 -1 -0.05518 484.27881)" gradientUnits="userSpaceOnUse">
	<stop offset="0" style="stop-color:#FFFFFF" id="stop282"/>
	<stop offset="1" style="stop-color:#C0272D" id="stop284"/>
</radialGradient>
<circle fill="url(#XMLID_446_)" cx="529.66431" cy="169.27856" r="2.19336" id="circle286"/>
<radialGradient id="XMLID_447_" cx="552.99634" cy="324.62671" r="2.19336" gradientTransform="matrix(1 0 0 -1 -0.05518 484.27881)" gradientUnits="userSpaceOnUse">
	<stop offset="0" style="stop-color:#FFFFFF" id="stop289"/>
	<stop offset="1" style="stop-color:#C0272D" id="stop291"/>
</radialGradient>
<circle fill="url(#XMLID_447_)" cx="552.9397" cy="159.65161" r="2.19336" id="circle293"/>
<radialGradient id="XMLID_448_" cx="542.74829" cy="294.55444" r="2.19336" gradientTransform="matrix(1 0 0 -1 -0.05518 484.27881)" gradientUnits="userSpaceOnUse">
	<stop offset="0" style="stop-color:#FFFFFF" id="stop296"/>
	<stop offset="1" style="stop-color:#C0272D" id="stop298"/>
</radialGradient>
<circle fill="url(#XMLID_448_)" cx="542.69165" cy="189.72485" r="2.19336" id="circle300"/>
<radialGradient id="XMLID_449_" cx="430.40649" cy="234.69702" r="2.19385" gradientTransform="matrix(1 0 0 -1 -0.05518 484.27881)" gradientUnits="userSpaceOnUse">
	<stop offset="0" style="stop-color:#FFFFFF" id="stop303"/>
	<stop offset="1" style="stop-color:#C0272D" id="stop305"/>
</radialGradient>
<circle fill="url(#XMLID_449_)" cx="430.35181" cy="249.58179" r="2.19336" id="circle307"/>
<radialGradient id="XMLID_450_" cx="454.5354" cy="268.81616" r="2.19336" gradientTransform="matrix(1 0 0 -1 -0.05518 484.27881)" gradientUnits="userSpaceOnUse">
	<stop offset="0" style="stop-color:#FFFFFF" id="stop310"/>
	<stop offset="1" style="stop-color:#C0272D" id="stop312"/>
</radialGradient>
<circle fill="url(#XMLID_450_)" cx="454.47876" cy="215.46216" r="2.19336" id="circle314"/>
<radialGradient id="XMLID_451_" cx="374.31665" cy="252.40796" r="2.19336" gradientTransform="matrix(1 0 0 -1 -0.05518 484.27881)" gradientUnits="userSpaceOnUse">
	<stop offset="0" style="stop-color:#FFFFFF" id="stop317"/>
	<stop offset="1" style="stop-color:#C0272D" id="stop319"/>
</radialGradient>
<circle fill="url(#XMLID_451_)" cx="374.26196" cy="231.87012" r="2.1936" id="circle321"/>
<radialGradient id="XMLID_452_" cx="525.21118" cy="285.38843" r="2.19385" gradientTransform="matrix(1 0 0 -1 -0.05518 484.27881)" gradientUnits="userSpaceOnUse">
	<stop offset="0" style="stop-color:#FFFFFF" id="stop324"/>
	<stop offset="1" style="stop-color:#C0272D" id="stop326"/>
</radialGradient>
<circle fill="url(#XMLID_452_)" cx="525.15649" cy="198.88989" r="2.19336" id="circle328"/>
<radialGradient id="XMLID_453_" cx="492.55493" cy="259.55444" r="2.19336" gradientTransform="matrix(1 0 0 -1 -0.05518 484.27881)" gradientUnits="userSpaceOnUse">
	<stop offset="0" style="stop-color:#FFFFFF" id="stop331"/>
	<stop offset="1" style="stop-color:#C0272D" id="stop333"/>
</radialGradient>
<circle fill="url(#XMLID_453_)" cx="492.49829" cy="224.72339" r="2.19336" id="circle335"/>
<radialGradient id="XMLID_454_" cx="475.49438" cy="281.48999" r="2.19336" gradientTransform="matrix(1 0 0 -1 -0.05518 484.27881)" gradientUnits="userSpaceOnUse">
	<stop offset="0" style="stop-color:#FFFFFF" id="stop338"/>
	<stop offset="1" style="stop-color:#C0272D" id="stop340"/>
</radialGradient>
<circle fill="url(#XMLID_454_)" cx="475.4397" cy="202.78931" r="2.19336" id="circle342"/>
<radialGradient id="XMLID_455_" cx="410.66626" cy="404.32202" r="26.12553" gradientTransform="matrix(1 0 0 -1 -0.05518 484.27881)" gradientUnits="userSpaceOnUse">
	<stop offset="0" style="stop-color:#FFFFFF" id="stop345"/>
	<stop offset="1" style="stop-color:#FFC20E" id="stop347"/>
</radialGradient>
<path fill="url(#XMLID_455_)" d="M411.63696,112.26001c-9.75586-1.58154-17.88672-5.25342-17.41406-16.45654  c0.33008-7.87891,4.74805-16.5918,10.5293-21.69238c4.54297-4.00977,12.08398-7.88721,17.91797-9.40674  c3.62891-0.94531,14.5918-3.17578,17.33203,0.98438c1.41016,2.14209-0.75195,2.75488-0.75195,5.00928  c0.00391,4.22998,3.07227,8.91943,5.5918,12.4541c2.32422,3.26367,8.69727,8.5625,5.75586,12.91211  c-1.93555,2.86084-7.61914,1.91846-10.14258,3.98975c-2.70898,2.21924-4.13477,6.51123-7.48438,8.67285  C427.26587,112.41138,418.13696,113.31372,411.63696,112.26001z" id="path349"/>
<path opacity="0.11" fill="#967348" enable-background="new    " d="M434.51001,115.8396  c4.81445-1.5625,9.53906-4.22412,14.5918-8.0835c9.31836-7.11621,20.25391-24.85156,13.69922-36.97021  c8.25977,0.6499,13.56641,18.24414,14.58594,24.76904c1.12695,7.22559,4.16406,17.45703,1.78125,24.53711  c-2.77734,8.25879-9.87695,16.51807-16.96484,21.36963c-9.91406,6.78418-24.44531,6.95264-36.01758,5.7749  c-24.18555-2.46289-40.52734-28.04492-37.48438-51.50439c-1.63281,12.59668,11.2207,17.17236,21.09961,19.7876  C419.32251,118.03931,427.02759,118.26782,434.51001,115.8396z" id="path351"/>
<path fill="#971B1E" d="M275.85425,61.17896" id="path353"/>
<path fill="#6D2224" d="M309.10181,82.3479c0.34863-0.43115,0.72266-0.84717,1.12207-1.24414  c-0.39258,7.71777,1.84668,15.0918,1.90137,22.24072c0.04102,5.38428-0.99902,10.74609-0.78711,16.13232  c0.05566,1.42334,0.81641,11.92871,1.90918,12.64941c-7.03467-4.63818-6.61035-16.33936-7.82373-23.71826  C304.09448,100.2522,303.5061,89.25073,309.10181,82.3479z" id="path355"/>
<path fill="#C0272D" d="M362.81274,230.83032c3.28711,7.43262,8.04102,14.50342,15.45703,17.5249  c4.43555,1.80664,8.39258,4.03516,13.09375,5.03516c1.96484,0.41992,11.69922,3.60352,12.75977,3.01563  c-12.73047,7.04883-28.95898,1.5332-40.79102-4.89844c-10.56055-5.74023-19.67773-13.04346-23.50195-24.83252  c-3.71875-11.46973-4.74414-23.68604-8.96094-35.0083c-0.94531-2.53711-2.23438-6.7334-3.94336-8.80029  c-4.16797-5.03809-6.34375-2.68652-5.79102-10.21289c0.41016-5.53711,1.06836-11.46045-1.45313-16.62891  c-3.32031-6.80518-11.53711-10.04004-16.79443-15.1748c-2.10498-2.05762-4.10303-3.5874-5.82031-5.9082  c-5.45313-7.36963-7.73242-18.70996-7.22998-27.68848c0.17725-3.16797,0.88916-11.45557,5.28271-11.60205  c4.66211-0.15625,6.90527,11.26514,8.30859,14.69629c3.84521,9.3999,8.20459,20.24707,15.01123,27.95459  c6.35547,7.19434,14.89063,12.17432,23,17.10645c4.70313,2.85889,8.6543,4.62793,10.08594,9.92285  c2.55664,9.46143,1.98242,20.57861,3.51758,30.65869C356.82642,207.69312,357.97095,219.88647,362.81274,230.83032z" id="path357"/>
<path fill="#6D2224" d="M283.87866,77.11743c-8.55078,10.06006-11.63818,20.83496-11.10059,33.86035  c0.30029,7.28271,1.71582,23.11084,11.10156,24.66455c5.01709,0.83008,7.7207-5.73389,7.1875-9.85938  c-1.42188-10.98877-4.35791-21.16016-3.39453-32.33643c0.40332-4.68896,4.01367-10.56641,3.5166-14.95361  C290.5896,73.20386,286.92798,73.52954,283.87866,77.11743z" id="path359"/>
<path fill="#C0272D" d="M269.25708,147.22241c-4.7041-10.4541-7.8877,11.63232-7.66602,14.94092  c0.59229,8.85547,3.03516,17.63867,5.82471,26.02881c3.80322,11.44189,7.9043,24.41797,14.47803,34.60742  c6.1958,9.60449,14.77344,18.76904,23.81152,25.72363c6.18945,4.75977,12.12695,9.97461,18.94727,13.83789  c6.75781,3.83008,13.92578,4.42578,21.04688,7.14453c1.52344-3.09766-2.61523-4.9043-4.79102-6.73633  c-4.25-3.57813-7.91211-7.26172-11.21094-11.82227c-11.30469-15.6333-16.39453-34.93457-17.54688-54.03076  c-0.08789-1.45654,0.26465-6.29199-0.83203-7.31982c-2.20996-2.07568-6.22266-0.10693-8.81934-0.98389  c-2.18604-0.73926-4.4917-3.16406-6.31396-4.56104c-6.12891-4.69336-11.73633-9.89404-16.66943-15.84619  c-4.32422-5.2168-7.07764-6.51807-8.30908-13.07568c-0.73535-3.90869-2.42285-6.80859-4.38721-10.34424" id="path361"/>
<radialGradient id="XMLID_456_" cx="277.03003" cy="280.51538" r="2.19336" gradientTransform="matrix(1 0 0 -1 -0.05518 484.27881)" gradientUnits="userSpaceOnUse">
	<stop offset="0" style="stop-color:#FFFFFF" id="stop364"/>
	<stop offset="1" style="stop-color:#C0272D" id="stop366"/>
</radialGradient>
<circle fill="url(#XMLID_456_)" cx="276.97485" cy="203.76392" r="2.19336" id="circle368"/>
<radialGradient id="XMLID_457_" cx="361.1936" cy="232.77124" r="2.19385" gradientTransform="matrix(1 0 0 -1 -0.05518 484.27881)" gradientUnits="userSpaceOnUse">
	<stop offset="0" style="stop-color:#FFFFFF" id="stop371"/>
	<stop offset="1" style="stop-color:#C0272D" id="stop373"/>
</radialGradient>
<circle fill="url(#XMLID_457_)" cx="361.13892" cy="251.50757" r="2.19336" id="circle375"/>
<radialGradient id="XMLID_458_" cx="394.66235" cy="221.61694" r="2.1936" gradientTransform="matrix(1 0 0 -1 -0.05518 484.27881)" gradientUnits="userSpaceOnUse">
	<stop offset="0" style="stop-color:#FFFFFF" id="stop378"/>
	<stop offset="1" style="stop-color:#C0272D" id="stop380"/>
</radialGradient>
<circle fill="url(#XMLID_458_)" cx="394.60767" cy="262.66187" r="2.19336" id="circle382"/>
<radialGradient id="XMLID_459_" cx="331.86548" cy="311.71069" r="2.19336" gradientTransform="matrix(1 0 0 -1 -0.05518 484.27881)" gradientUnits="userSpaceOnUse">
	<stop offset="0" style="stop-color:#FFFFFF" id="stop385"/>
	<stop offset="1" style="stop-color:#C0272D" id="stop387"/>
</radialGradient>
<circle fill="url(#XMLID_459_)" cx="331.81079" cy="172.5686" r="2.19336" id="circle389"/>
<radialGradient id="XMLID_460_" cx="311.0686" cy="320.15796" r="2.19336" gradientTransform="matrix(1 0 0 -1 -0.05518 484.27881)" gradientUnits="userSpaceOnUse">
	<stop offset="0" style="stop-color:#FFFFFF" id="stop392"/>
	<stop offset="1" style="stop-color:#C0272D" id="stop394"/>
</radialGradient>
<circle fill="url(#XMLID_460_)" cx="311.01392" cy="164.12036" r="2.19336" id="circle396"/>
<radialGradient id="XMLID_461_" cx="285.39722" cy="358.98999" r="2.19336" gradientTransform="matrix(1 0 0 -1 -0.05518 484.27881)" gradientUnits="userSpaceOnUse">
	<stop offset="0" style="stop-color:#FFFFFF" id="stop399"/>
	<stop offset="1" style="stop-color:#C0272D" id="stop401"/>
</radialGradient>
<circle fill="url(#XMLID_461_)" cx="285.34204" cy="125.28809" r="2.1936" id="circle403"/>
<radialGradient id="XMLID_462_" cx="390.56079" cy="237.49976" r="2.19336" gradientTransform="matrix(1 0 0 -1 -0.05518 484.27881)" gradientUnits="userSpaceOnUse">
	<stop offset="0" style="stop-color:#FFFFFF" id="stop406"/>
	<stop offset="1" style="stop-color:#C0272D" id="stop408"/>
</radialGradient>
<circle fill="url(#XMLID_462_)" cx="390.50415" cy="246.77905" r="2.19336" id="circle410"/>
<radialGradient id="XMLID_463_" cx="307.8186" cy="408.22046" r="2.19336" gradientTransform="matrix(1 0 0 -1 -0.05518 484.27881)" gradientUnits="userSpaceOnUse">
	<stop offset="0" style="stop-color:#FFFFFF" id="stop413"/>
	<stop offset="1" style="stop-color:#C0272D" id="stop415"/>
</radialGradient>
<circle fill="url(#XMLID_463_)" cx="307.76392" cy="76.05786" r="2.19336" id="circle417"/>
<radialGradient id="XMLID_464_" cx="267.66479" cy="387.93335" r="2.1936" gradientTransform="matrix(1 0 0 -1 -0.05518 484.27881)" gradientUnits="userSpaceOnUse">
	<stop offset="0" style="stop-color:#FFFFFF" id="stop420"/>
	<stop offset="1" style="stop-color:#C0272D" id="stop422"/>
</radialGradient>
<circle fill="url(#XMLID_464_)" cx="267.61011" cy="96.34595" r="2.19336" id="circle424"/>
<radialGradient id="XMLID_465_" cx="281.74146" cy="387.26147" r="2.19336" gradientTransform="matrix(1 0 0 -1 -0.05518 484.27881)" gradientUnits="userSpaceOnUse">
	<stop offset="0" style="stop-color:#FFFFFF" id="stop427"/>
	<stop offset="1" style="stop-color:#C0272D" id="stop429"/>
</radialGradient>
<circle fill="url(#XMLID_465_)" cx="281.68628" cy="97.01733" r="2.19336" id="circle431"/>
<radialGradient id="XMLID_466_" cx="277.47632" cy="329.13452" r="2.19385" gradientTransform="matrix(1 0 0 -1 -0.05518 484.27881)" gradientUnits="userSpaceOnUse">
	<stop offset="0" style="stop-color:#FFFFFF" id="stop434"/>
	<stop offset="1" style="stop-color:#C0272D" id="stop436"/>
</radialGradient>
<circle fill="url(#XMLID_466_)" cx="277.42114" cy="155.14307" r="2.1936" id="circle438"/>
<radialGradient id="XMLID_467_" cx="289.29663" cy="319.50952" r="2.19336" gradientTransform="matrix(1 0 0 -1 -0.05518 484.27881)" gradientUnits="userSpaceOnUse">
	<stop offset="0" style="stop-color:#FFFFFF" id="stop441"/>
	<stop offset="1" style="stop-color:#C0272D" id="stop443"/>
</radialGradient>
<circle fill="url(#XMLID_467_)" cx="289.24146" cy="164.76978" r="2.19336" id="circle445"/>
<radialGradient id="XMLID_468_" cx="288.32153" cy="275.88452" r="2.19336" gradientTransform="matrix(1 0 0 -1 -0.05518 484.27881)" gradientUnits="userSpaceOnUse">
	<stop offset="0" style="stop-color:#FFFFFF" id="stop448"/>
	<stop offset="1" style="stop-color:#C0272D" id="stop450"/>
</radialGradient>
<circle fill="url(#XMLID_468_)" cx="288.26636" cy="208.39453" r="2.1936" id="circle452"/>
<radialGradient id="XMLID_469_" cx="307.33032" cy="254.19312" r="2.19336" gradientTransform="matrix(1 0 0 -1 -0.05518 484.27881)" gradientUnits="userSpaceOnUse">
	<stop offset="0" style="stop-color:#FFFFFF" id="stop455"/>
	<stop offset="1" style="stop-color:#C0272D" id="stop457"/>
</radialGradient>
<circle fill="url(#XMLID_469_)" cx="307.27563" cy="230.08521" r="2.19336" id="circle459"/>
<radialGradient id="XMLID_470_" cx="376.05884" cy="221.53687" r="2.19336" gradientTransform="matrix(1 0 0 -1 -0.05518 484.27881)" gradientUnits="userSpaceOnUse">
	<stop offset="0" style="stop-color:#FFFFFF" id="stop462"/>
	<stop offset="1" style="stop-color:#C0272D" id="stop464"/>
</radialGradient>
<circle fill="url(#XMLID_470_)" cx="376.00415" cy="262.74194" r="2.19336" id="circle466"/>
<radialGradient id="XMLID_471_" cx="409.29321" cy="216.32788" r="2.19336" gradientTransform="matrix(1 0 0 -1 -0.05518 484.27881)" gradientUnits="userSpaceOnUse">
	<stop offset="0" style="stop-color:#FFFFFF" id="stop469"/>
	<stop offset="1" style="stop-color:#C0272D" id="stop471"/>
</radialGradient>
<circle fill="url(#XMLID_471_)" cx="409.23657" cy="267.95093" r="2.19336" id="circle473"/>
<radialGradient id="XMLID_472_" cx="338.52759" cy="233.72241" r="2.19336" gradientTransform="matrix(1 0 0 -1 -0.05518 484.27881)" gradientUnits="userSpaceOnUse">
	<stop offset="0" style="stop-color:#FFFFFF" id="stop476"/>
	<stop offset="1" style="stop-color:#C0272D" id="stop478"/>
</radialGradient>
<circle fill="url(#XMLID_472_)" cx="338.47095" cy="250.5564" r="2.19336" id="circle480"/>
<radialGradient id="XMLID_473_" cx="386.78345" cy="215.9314" r="2.19336" gradientTransform="matrix(1 0 0 -1 -0.05518 484.27881)" gradientUnits="userSpaceOnUse">
	<stop offset="0" style="stop-color:#FFFFFF" id="stop483"/>
	<stop offset="1" style="stop-color:#C0272D" id="stop485"/>
</radialGradient>
<circle fill="url(#XMLID_473_)" cx="386.72681" cy="268.34741" r="2.19336" id="circle487"/>
<radialGradient id="XMLID_474_" cx="382.07251" cy="238.62866" r="2.19336" gradientTransform="matrix(1 0 0 -1 -0.05518 484.27881)" gradientUnits="userSpaceOnUse">
	<stop offset="0" style="stop-color:#FFFFFF" id="stop490"/>
	<stop offset="1" style="stop-color:#C0272D" id="stop492"/>
</radialGradient>
<circle fill="url(#XMLID_474_)" cx="382.01782" cy="245.6499" r="2.1936" id="circle494"/>
<radialGradient id="XMLID_475_" cx="281.74243" cy="414.20874" r="2.19336" gradientTransform="matrix(1 0 0 -1 -0.05518 484.27881)" gradientUnits="userSpaceOnUse">
	<stop offset="0" style="stop-color:#FFFFFF" id="stop497"/>
	<stop offset="1" style="stop-color:#C0272D" id="stop499"/>
</radialGradient>
<circle fill="url(#XMLID_475_)" cx="281.68726" cy="70.07056" r="2.19336" id="circle501"/>
<radialGradient id="XMLID_476_" cx="345.35181" cy="271.73999" r="2.19336" gradientTransform="matrix(1 0 0 -1 -0.05518 484.27881)" gradientUnits="userSpaceOnUse">
	<stop offset="0" style="stop-color:#FFFFFF" id="stop504"/>
	<stop offset="1" style="stop-color:#C0272D" id="stop506"/>
</radialGradient>
<circle fill="url(#XMLID_476_)" cx="345.29517" cy="212.53784" r="2.19336" id="circle508"/>
<radialGradient id="XMLID_477_" cx="356.56274" cy="246.88257" r="2.19336" gradientTransform="matrix(1 0 0 -1 -0.05518 484.27881)" gradientUnits="userSpaceOnUse">
	<stop offset="0" style="stop-color:#FFFFFF" id="stop511"/>
	<stop offset="1" style="stop-color:#C0272D" id="stop513"/>
</radialGradient>
<circle fill="url(#XMLID_477_)" cx="356.5061" cy="237.39673" r="2.19336" id="circle515"/>
<radialGradient id="XMLID_478_" cx="294.90942" cy="340.94702" r="2.19385" gradientTransform="matrix(1 0 0 -1 -0.05518 484.27881)" gradientUnits="userSpaceOnUse">
	<stop offset="0" style="stop-color:#FFFFFF" id="stop518"/>
	<stop offset="1" style="stop-color:#C0272D" id="stop520"/>
</radialGradient>
<circle fill="url(#XMLID_478_)" cx="294.85425" cy="143.33057" r="2.1936" id="circle522"/>
<radialGradient id="XMLID_479_" cx="261.69019" cy="361.24976" r="2.19336" gradientTransform="matrix(1 0 0 -1 -0.05518 484.27881)" gradientUnits="userSpaceOnUse">
	<stop offset="0" style="stop-color:#FFFFFF" id="stop525"/>
	<stop offset="1" style="stop-color:#C0272D" id="stop527"/>
</radialGradient>
<circle fill="url(#XMLID_479_)" cx="261.63501" cy="123.02905" r="2.19336" id="circle529"/>
<radialGradient id="XMLID_480_" cx="261.51343" cy="377.51343" r="2.19336" gradientTransform="matrix(1 0 0 -1 -0.05518 484.27881)" gradientUnits="userSpaceOnUse">
	<stop offset="0" style="stop-color:#FFFFFF" id="stop532"/>
	<stop offset="1" style="stop-color:#C0272D" id="stop534"/>
</radialGradient>
<circle fill="url(#XMLID_480_)" cx="261.45776" cy="106.76587" r="2.19336" id="circle536"/>
<radialGradient id="XMLID_481_" cx="297.09546" cy="374.83179" r="2.19336" gradientTransform="matrix(1 0 0 -1 -0.05518 484.27881)" gradientUnits="userSpaceOnUse">
	<stop offset="0" style="stop-color:#FFFFFF" id="stop539"/>
	<stop offset="1" style="stop-color:#C0272D" id="stop541"/>
</radialGradient>
<circle fill="url(#XMLID_481_)" cx="297.04028" cy="109.44653" r="2.19336" id="circle543"/>
<radialGradient id="XMLID_482_" cx="344.3772" cy="297.81812" r="2.19336" gradientTransform="matrix(1 0 0 -1 -0.05518 484.27881)" gradientUnits="userSpaceOnUse">
	<stop offset="0" style="stop-color:#FFFFFF" id="stop546"/>
	<stop offset="1" style="stop-color:#C0272D" id="stop548"/>
</radialGradient>
<circle fill="url(#XMLID_482_)" cx="344.32056" cy="186.46021" r="2.19336" id="circle550"/>
<radialGradient id="XMLID_483_" cx="330.72876" cy="322.92163" r="2.19336" gradientTransform="matrix(1 0 0 -1 -0.05518 484.27881)" gradientUnits="userSpaceOnUse">
	<stop offset="0" style="stop-color:#FFFFFF" id="stop553"/>
	<stop offset="1" style="stop-color:#C0272D" id="stop555"/>
</radialGradient>
<circle fill="url(#XMLID_483_)" cx="330.67212" cy="161.35767" r="2.19336" id="circle557"/>
<radialGradient id="XMLID_484_" cx="320.00415" cy="276.12671" r="2.19385" gradientTransform="matrix(1 0 0 -1 -0.05518 484.27881)" gradientUnits="userSpaceOnUse">
	<stop offset="0" style="stop-color:#FFFFFF" id="stop560"/>
	<stop offset="1" style="stop-color:#C0272D" id="stop562"/>
</radialGradient>
<circle fill="url(#XMLID_484_)" cx="319.94946" cy="208.15088" r="2.1936" id="circle564"/>
<radialGradient id="XMLID_485_" cx="297.09546" cy="285.63257" r="2.19336" gradientTransform="matrix(1 0 0 -1 -0.05518 484.27881)" gradientUnits="userSpaceOnUse">
	<stop offset="0" style="stop-color:#FFFFFF" id="stop567"/>
	<stop offset="1" style="stop-color:#C0272D" id="stop569"/>
</radialGradient>
<circle fill="url(#XMLID_485_)" cx="297.04028" cy="198.646" r="2.1936" id="circle571"/>
<radialGradient id="XMLID_486_" cx="324.28149" cy="290.74976" r="2.19336" gradientTransform="matrix(1 0 0 -1 -0.05518 484.27881)" gradientUnits="userSpaceOnUse">
	<stop offset="0" style="stop-color:#FFFFFF" id="stop574"/>
	<stop offset="1" style="stop-color:#C0272D" id="stop576"/>
</radialGradient>
<circle fill="url(#XMLID_486_)" cx="324.22485" cy="193.52808" r="2.19336" id="circle578"/>
<radialGradient id="XMLID_487_" cx="331.21509" cy="251.26929" r="2.1936" gradientTransform="matrix(1 0 0 -1 -0.05518 484.27881)" gradientUnits="userSpaceOnUse">
	<stop offset="0" style="stop-color:#FFFFFF" id="stop581"/>
	<stop offset="1" style="stop-color:#C0272D" id="stop583"/>
</radialGradient>
<circle fill="url(#XMLID_487_)" cx="331.1604" cy="233.00977" r="2.1936" id="circle585"/>
<radialGradient id="XMLID_488_" cx="268.82446" cy="308.05444" r="2.19336" gradientTransform="matrix(1 0 0 -1 -0.05518 484.27881)" gradientUnits="userSpaceOnUse">
	<stop offset="0" style="stop-color:#FFFFFF" id="stop588"/>
	<stop offset="1" style="stop-color:#C0272D" id="stop590"/>
</radialGradient>
<circle fill="url(#XMLID_488_)" cx="268.76929" cy="176.22437" r="2.19336" id="circle592"/>
<path fill="#C0272D" d="M336.67798,263.69116c-0.5957-2.54688-8.23242-8.21484-10.8125-6.08008  c-2.52344,2.08398,1.95313,9.31445-1.31836,12.53906c-3.43164,3.38086-7.13379-0.12891-8.52539-3.48438  c-3.19434-7.71094-5.17383-15.54492-9.11133-22.95703c-2.3208-4.37061-4.23242-7.90674-9.77295-8.27295  c-6.38428-0.42188-10.59033,4.7832-15.09912,8.78467c-6.90283,6.12695-20.96191,18.7168-30.3291,11.70898  c-8.38525-6.27344-3.96484-20.55908-0.51123-28.16162c4.54492-10.00439,9.29932-17.12256,8.79785-28.48486  c-0.15332-3.46436-1.61182-6.85547-1.61377-10.29883c-0.00195-2.84668,2.00684-6.02246,1.94678-8.42432  c-0.12061-4.88477-2.05078-6.70313-6.64307-8.84717c-7.82275-3.6499-17.28662-1.98193-25.06445-5.61084  c-5.94629-2.77441-10.46045-8.38477-11.82568-14.9458c-1.12061-5.38818,2.5752-13.25195-3.92041-15.01514  c-5.6416-1.53174-13.09766,4.90967-14.47363,9.78223c-1.82861,6.47363,2.36475,7.79785,4.0957,12.96436  c1.90283,5.67969,0.32178,9.44775,4.69238,14.20361c3.88525,4.22998,8.20752,6.50439,13.63086,7.9248  c12.64258,3.30908,27.15234,2.32568,25.48047,19.12598c-0.97266,9.77295-3.72314,25.67236-12.01025,32.15088  c-10.5752-5.62451,3.71631-19.22021-0.45898-25.94385c-2.82764-4.55371-7.47217-0.38379-7.98633,3.91455  c-0.60254,5.04834,4.42871,6.03467-0.65137,10.41602c-6.97168,6.0127-20.7583-8.14648-23.54004-14.97998  c-3.03711-7.45801,4.72656-13.65918-0.97998-20.5708c-1.18506,5.4165-5.51221,8.22998-6.62695,13.43848  c-1.39746,6.53809,0.44482,11.58594,5.18311,16.42383c6.1792,6.31006,14.03223,9.6792,21.44678,14.10498  c8.23486,4.91504,9.69873,13.85449,12.14648,22.43701c1.94971,6.83789,5.44189,10.29883,10.61133,14.61914  c5.0957,4.26172,7.23145,10.04688,15.20801,8.82227c15.83887-2.42969,23.64307-26.92578,38.39941-12.24414  c8.44824,8.40625,12.62598,19.64453,24.85645,22.93555c2.82227,0.75977,9.24023,2.35352,6.96875,6.82227  c-1.28125,2.52148-10.49609,3.49805-12.80664,3.38281c-7.28027-0.35547-9.87451-2.29492-8.2832-8.6582  c1.28125-5.12695,1.12695-7.81836-2.45117-12.1875c-5.99268-7.31641-6.91553-0.96875-6.82373,6.14258  c0.12256,9.47656,2.27979,18.08789,12.67334,20.09375c7.47266,1.44141,17.26953,3.19141,24.41406-0.60742  c3.52148-1.87109,2.8457-3.36328,5.42969-6.11914c1.62891-1.73828,4.23828-1.97461,5.88281-3.41211  c9.29297-8.13281-12.38672-6.54297-14.16992-13.86719C331.45142,271.98608,337.67603,267.96069,336.67798,263.69116z" id="path594"/>
<path fill="#6C9D31" d="M226.41284,282.90601c8.26318-7.31836-6.25-25.76758-13.38135-17.73242  c-1.9707,2.2207-1.11426,6.86523-0.50928,9.39258C214.01636,280.80835,219.76099,288.79468,226.41284,282.90601z" id="path596"/>
<path fill="#CADB2A" d="M174.51489,175.87769c8.89941-11.74023-17.4624-19.01709-12.85791-2.51904  C163.43628,179.73267,170.59448,181.04419,174.51489,175.87769z" id="path598"/>
<path fill="#006E3A" d="M167.2395,210.42212c9.60693,4.53467,21.22607-0.34521,12.36182-11.02979  c-4.5752-5.51514-11.21729-8.96875-15.48242-15.10742c-4.35742-6.27002-8.41943-14.125-10.25391-21.44678  c-0.95947-3.83008-1.52051-13.07861-7.53125-7.86084c-5.99414,5.2124-1.19092,20.25684,0.56934,26.66797  C149.87964,192.48267,156.60864,205.40552,167.2395,210.42212z" id="path600"/>
<path fill="#28903A" d="M124.61646,178.57495c-1.47461-6.00439-15.52051-46.78857-0.34277-45.86475  c7.04297,0.43018,11.72803,11.42871,12.71143,17.0957c2.72998,15.75,7.18359,29.68457,17.54248,42.09619  c9.71924,11.64502,21.35645,17.354,33.63721,25.33105c4.92285,3.19678,15.33105,19.45654,2.74658,15.84033  c-1.3335,8.17969,6.3374,18.2915-4.68115,20.74854c-3.5166,0.7832-12.69971,1.25781-16.24756,0.67969  c-9.73145-1.58398-10.91211-12.94092-17.35156-19.05029C136.07104,219.74146,129.99927,200.48901,124.61646,178.57495z" id="path602"/>
<linearGradient id="XMLID_489_" gradientUnits="userSpaceOnUse" x1="99.302" y1="289.72437" x2="211.08081" y2="289.72437" gradientTransform="matrix(1 0 0 -1 -0.05518 484.27881)">
	<stop offset="0" style="stop-color:#28903A" id="stop605"/>
	<stop offset="1" style="stop-color:#8CC63F" id="stop607"/>
</linearGradient>
<path fill="url(#XMLID_489_)" d="M100.88403,156.61938c-1.66357-14.02393-5.2583-36.7417,9.31348-45.20752  c6.34326-3.68652,12.23291,3.68604,11.6875,9.8291c-0.86621,9.76758-8.68506,11.55957-5.87451,21.96387  c2.95557,10.94043,5.66602,22.1001,10.42041,32.44922c11.36133,24.7334,30.38623,44.77393,54.09424,57.85791  c5.49658,3.03418,11.42188,3.78906,16.5332,7.30469c4.09375,2.81592,11.87061,5.72021,13.74316,10.70654  c1.10449,2.93945-2.13525,14.07813-3.9375,16.60742c-3.78027,5.30469-6.2041,0.99219-10.72705,0.92773  c-6.1958-0.07617-7.02588,6.98828-11.29199,8.98242c-6.68652,3.12305-17.71191-5.85352-21.58154-10.59961  c-9.90576-12.14844-21.8916-23.31641-30.98828-36.271c-16.02979-22.83105-28.04492-46.10742-31.35596-74.25439  C100.90747,156.81763,100.89526,156.71851,100.88403,156.61938z" id="path609"/>
<linearGradient id="XMLID_490_" gradientUnits="userSpaceOnUse" x1="81.18872" y1="266.24585" x2="203.99731" y2="266.24585" gradientTransform="matrix(1 0 0 -1 -0.05518 484.27881)">
	<stop offset="0" style="stop-color:#006E3A" id="stop612"/>
	<stop offset="1" style="stop-color:#28903A" id="stop614"/>
</linearGradient>
<path fill="url(#XMLID_490_)" d="M105.49829,156.43091c6.1748,17.59717,12.12256,33.58496,22.27197,49.2998  c8.49512,13.15137,18.43848,25.55957,30.14844,35.99609c5.91113,5.26904,12.30176,10.04834,19.23535,13.896  c3.65576,2.02734,8.28613,2.98633,11.72266,5.23242c4.14648,2.70898,2.92578,3.30664,3.47607,8.22461  c0.4751,4.23633,2.78076,8.70508,4.2915,12.66016c3.22656,8.44727,12.72363,28.44531,3.10352,35.76758  c-8.70117,6.62305-22.5293-2.80469-30.70605-6.47656c-12.25146-5.5-21.52588-14.54297-30.95068-24.06445  c-20.33691-20.54492-28.48486-52.2876-35.18799-79.32031c-1.0293-4.14893-1.62695-8.55176-3.76221-12.27979  c-1.07568-1.87842-3.80811-2.93506-5.21143-5.66162c-4.00244-7.77148-3.25293-16.37451-5.59229-24.4209  c-2.51709-8.65576-4.02197-17.28369-5.36816-26.19287c-0.78174-5.17773-4.3623-18.77441,1.29932-22.02246  c4.42578-2.54004,13.4541,1.30713,15.2085,5.78223c1.29395,3.30078-0.52441,7.88184-0.33252,11.41553  C99.53003,141.35229,103.14673,149.73071,105.49829,156.43091z" id="path616"/>
<path fill="#6C9D31" d="M149.83325,125.17651c-9.47705,1.8833-18.87646,13.19678-5.70361,17.75439  c7.30127,2.52539,17.42383-4.71729,14.99219-13.74512C156.86011,120.78394,155.13013,124.12476,149.83325,125.17651z" id="path618"/>
<path fill="#8CC63F" d="M100.91528,174.61157c-2.0791-6.26709-10.86426-33.06689-20.60254-23.35742  c-8.50049,8.47656-3.98389,26.57715-1.4585,36.24463c2.69434,10.31494,7.18408,19.39941,11.0293,29.26318  c1.9668,5.04248,5.04053,13.62402,2,18.68652c-3.04443,5.06934-9.90283,3.99023-10.95264,11.19385  c-1.59961,10.97852,7.10938,7.93359,13.37354,9.91016c16.82275,5.30664,7.64844,27.82227,8.68701,40.09961  c0.70361,8.3125,7.87402,16.30859,12.45898,23.02734c5.67578,8.31641,15.52637,8.0293,22.9082,14.03125  c3.13135,2.54492,4.3335,7.27734,7.66357,9.8457c3.75391,2.89453,11.43262,4.18945,16.1748,3.84961  c9.85596-0.71094,42.28125-9.01758,29.55615-24.23633c-8.50146-10.16797-12.05371-22.22852-14.62012-34.94727  c-1.17969-5.83984-0.75146-11.4043-4.58301-16.33398c-3.95166-5.08398-10.43896-7.17383-15.15771-11.49023  c-12.08203-11.05078-21.58887-24.56592-30.92139-37.91943c-7.06201-10.10498-15.58545-19.24023-20.0625-30.83594  C104.27759,186.1272,102.78979,180.26392,100.91528,174.61157z" id="path620"/>
<path fill="#8CC63F" d="M242.44653,307.97827c12.10742-8.57422,0.80811-34.41797-9.85449-17.47852  C229.23657,295.82983,234.12573,313.8689,242.44653,307.97827z" id="path622"/>
<path fill="#006E3A" d="M111.37378,280.61108c-12.1416-5.45703-12.17676,10.77539-6.95117,16.79883  c5.96045,6.86914,12.50146,5.27148,12.06348-4.41602C116.29224,288.71655,116.44995,282.89233,111.37378,280.61108z" id="path624"/>
<path fill="#6C9D31" d="M110.79224,313.64233c8.26367-7.31836-6.25-25.76758-13.38135-17.73242  c-1.9707,2.2207-1.11377,6.86523-0.50928,9.39258C98.39624,311.54272,104.14087,319.53101,110.79224,313.64233z" id="path626"/>
<path fill="#6C9D31" d="M101.79761,261.82593c8.89941-11.74023-17.4624-19.01709-12.85742-2.51953  C90.71948,265.67944,97.8772,266.99194,101.79761,261.82593z" id="path628"/>
<path fill="#FFFBCA" d="M424.53735,209.50952" id="path630"/>
<path opacity="0.19" fill="#00ADEF" enable-background="new    " d="M83.05005,313.59741  c0.01025-0.00586,283.11035-159.34521,285.21582-160.52588c-7.63281,4.3042-0.83398,29.6748,0.21094,36.24023  c2.31445,14.55908,7.44727,27.48926,18.95703,37.3374c0.92383-0.92334,2.48633-1.58105,3.23633-2.24463  c3.2207,6.30127,10.04883,10.70898,16.33594,12.77344c7.38477,2.42383,20.81836,7.49561,28.03906,5.27539  c0.70898,67.38037-0.10742,134.86475-0.10742,202.26123c0,2.98242,0,5.9668,0,8.95313c0,2.95117-23.23633,4.68945-25.43945,4.83594  c-4.26172,0.2793-8.39648-0.57227-12.52344-0.22852c-4.76367,0.39648-9.33984,2.90234-14.15234,3.44727  c-18.34961,2.06836-37.21289,1.99805-55.54883,0.00977c-19.68359-2.13477-39.58789-4.86523-59.00391-8.75977  c-7.22705-1.44922-14.39648-3.87695-21.68213-4.93359c-3.83105-0.55664-8.08643-0.01953-9.80078-4.54102  c-2.48779-6.55664,5.52734-15.07031,9.05811-19.79688c8.69482-11.63477,8.25977-29.25391-9.63623-31.19141  c-15.0918-1.63477-14.75879,12.57617-17.02344,23.28711c-1.41992,6.71289-7.53906,16.74414-15.02588,17.70703  c-9.64941,1.24023-22.91357-9.7793-30.45264-14.74609c-12.63721-8.32813-26.52588-17.38086-38.01465-27.19922  c-9.16016-7.82813-19.61621-15.77148-27.32178-24.94922c-4.36572-5.20117-5.7832-12.0957-8.63184-18.10547  C98.53052,345.95679,81.11255,314.68726,83.05005,313.59741z" id="path632"/>
<path fill="#F7931D" d="M212.63062,98.56421c1.60498,3.5625,10.47266-5.3418-1.1626-6.74219  c-2.29639-0.27588-15.10645,1.31885-10.93262,5.58936C202.90747,99.84009,209.45825,98.37671,212.63062,98.56421z" id="path634"/>
<path fill="#F7931D" d="M256.39917,181.12134c1.37451-1.98975-0.03906-5.10449-4.68408-7.4834  c-7.25049-3.71387-15.7793-2.6582-23.23828-5.60352c-6.13672-2.42285-10.05029-8.04736-13.47949-13.396  c-1.72021-2.68262-2.73145-3.34326-3.23975-6.66309c-0.42285-2.75244,1.81738-6.00879-0.16846-8.57178  c-3.21338-4.14014-10.24854,1.3374-10.78467,5.16455c-0.71094,5.08105,6.47119,11.94189,8.20654,16.93262  c4.87354,14.01221,16.58496,13.30518,28.91553,17.04639c3.68604,1.11865,7.05908,3.83936,10.86328,4.37061  C252.76929,183.47485,255.36792,182.61401,256.39917,181.12134z" id="path636"/>
<path fill="#F7931D" d="M201.67114,63.13257c-5.55615,4.38672-17.90723,9.20215-20.4751,15.97656  c-2.64258,6.97705,5.75488,6.34961,10.03223,4.86963c7.30127-2.52686,9.4165-10.10596,14.77637-15.37109  c4.56592-4.48535,10.06445-8.37598,15.79199-11.23096c3.50244-1.74609,7.73975-2.22705,9.6084-5.84619  C220.3772,50.43091,210.51587,56.15063,201.67114,63.13257z" id="path638"/>
<path fill="#F7931D" d="M194.03882,126.11353c8.68994-1.06641,3.02148-7.55322-2.69922-5.96924  C184.52319,122.03247,188.85034,126.74927,194.03882,126.11353z" id="path640"/>
<linearGradient id="XMLID_491_" gradientUnits="userSpaceOnUse" x1="58.45679" y1="284.88062" x2="84.22163" y2="270.72388" gradientTransform="matrix(1 0 0 -1 -0.05518 484.27881)">
	<stop offset="0" style="stop-color:#FFC20E" id="stop643"/>
	<stop offset="1" style="stop-color:#FFF200" id="stop645"/>
</linearGradient>
<path fill="url(#XMLID_491_)" d="M102.12036,185.03442c-1.81445-4.84521-3.59082-9.7041-5.33008-14.57617  c-1.61865-4.53369-4.24609-8.43896-5.68945-13.07227c-0.59082-1.89844-0.62549-3.9126-2.34473-5.22461  c-6.85889-5.22949-8.31201,5.45313-7.40771,9.92871c1.21143,5.99854,3.90039,11.84277,6.45654,17.36328  c4.18164,9.03076,9.33936,17.479,13.94824,26.27539c3.20801,6.12549,12.2417,16.64307,12.23779,23.28223  c-3.49268-0.15186-8.43652,0.65918-8.53662,4.79297c-0.20361,8.39355,15.12744,7.75195,17.96631,13.96729  c2.0918,4.58008-3.53174,6.05078-2.53613,10.96094c0.59766,2.95117,6.58008,8.58984,9.646,8.79492  c6.9668,0.4668,1.52979-4.23438,4.40479-8.9043c0.27148-0.43945,11.72217,9.4082,13.00146,10.33594  c5.58057,4.04297,13.11768,5.62305,16.44873,12.03906c2.94287,5.66992,2.69141,12.62305,3.83936,18.76563  c2.08398,11.14453,5.48486,24.35156,14.73145,31.82813c3.22949,2.60938,7.64111,4.34375,9.89453-0.50195  c2.18164-4.69141-2.604-6.37109-5.50732-9.25977c-8.84619-8.80273-11.98145-24.12305-13.62256-36.05273  c-1.20508-8.76172-0.90039-12.2168-8.4834-17.19531c-3.02148-1.98438-6.56006-4.42578-9.41992-6.79883  c-8.01221-6.64648-15.19434-14.24414-21.31836-22.66553c-6.12646-8.42285-9.56396-19.18066-17.01807-26.59326  C110.17554,205.2605,105.74878,194.7229,102.12036,185.03442z" id="path647"/>
<radialGradient id="XMLID_492_" cx="104.72339" cy="249.97046" r="7.48109" gradientTransform="matrix(1 0 0 -1 -0.05518 484.27881)" gradientUnits="userSpaceOnUse">
	<stop offset="0" style="stop-color:#F7931D" id="stop650"/>
	<stop offset="1" style="stop-color:#FFC20E" id="stop652"/>
</radialGradient>
<path fill="url(#XMLID_492_)" d="M113.0686,241.40845c-4.22607-0.16602-9.58936-5.28223-7.32178-9.68018  c0.64795-1.25684,7.78076-4.28857,7.97754-2.90674C113.89966,230.04712,112.30054,241.37915,113.0686,241.40845z" id="path654"/>
<radialGradient id="XMLID_493_" cx="127.56665" cy="225.7771" r="8.5158" gradientTransform="matrix(1 0 0 -1 -0.05518 484.27881)" gradientUnits="userSpaceOnUse">
	<stop offset="0" style="stop-color:#F7931D" id="stop657"/>
	<stop offset="1" style="stop-color:#FFC20E" id="stop659"/>
</radialGradient>
<path fill="url(#XMLID_493_)" d="M123.42847,248.72437c1.57617,1.83984-2.58398,5.97266-2.90771,7.76953  c-0.60742,3.36914,5.8501,10.82227,9.16699,11.625c5.06006,1.22852,4.93896-4.89258,4.81738-8.25586  c-1.46533,2.81836-4.85449,8.44922-8.63281,5.56055C120.85132,261.58569,127.08765,252.99585,123.42847,248.72437z" id="path661"/>
<linearGradient id="XMLID_494_" gradientUnits="userSpaceOnUse" x1="176.2688" y1="151.5564" x2="176.2688" y2="183.16595" gradientTransform="matrix(1 0 0 -1 -0.05518 484.27881)">
	<stop offset="0" style="stop-color:#FFC20E" id="stop664"/>
	<stop offset="1" style="stop-color:#FFF200" id="stop666"/>
</linearGradient>
<path fill="url(#XMLID_494_)" d="M171.02124,307.13257c0.76318,2.43555,1.5918,4.85156,2.44824,7.25195  c2.0918,5.86523,3.14648,10.87695,8.12646,15.10352c2.95996,2.50977,8.99658,5.74023,11.13281,0.51953  c1.78955-4.37109-2.91113-6.42969-5.35986-9.25977c-6.49072-7.50195-9.05078-16.93555-11.53076-26.31055  c-1.17383-4.43555-2.31592-8.70117-2.896-13.13086c-0.40332-3.08594-0.05225-7.81641-3.43652-9.51367  c-1.52637-0.76367-4.14893-0.99023-5.7876-0.56641c-1.49072,0.38672-5.73584,2.8125-4.01172,4.62109  c2.52393,2.64648,4.16162,0.54883,5.93213,5.14453c1.97559,5.125,1.64404,10.77734,2.75439,16.16992  C169.08569,300.53101,169.99292,303.84937,171.02124,307.13257z" id="path668"/>
<linearGradient id="XMLID_495_" gradientUnits="userSpaceOnUse" x1="74.46411" y1="284.96655" x2="134.35295" y2="275.71542" gradientTransform="matrix(1 0 0 -1 -0.05518 484.27881)">
	<stop offset="0" style="stop-color:#F7931D" id="stop671"/>
	<stop offset="0.16854" style="stop-color:#FFC20E" id="stop673"/>
	<stop offset="1" style="stop-color:#FFF200" id="stop675"/>
</linearGradient>
<path fill="url(#XMLID_495_)" d="M96.36157,151.82446c4.6499,10.7041,9.09375,21.48291,13.00391,32.41846  c1.73145,4.84326,4.18408,9.15771,6.87158,13.49121c3.05176,4.92188,4.80762,10.31006,8.26709,14.91406  c3.83936,5.1084,6.79736,10.86523,10.82031,15.88623c3.43311,4.28418,7.66113,8.00488,11.23877,12.21094  c6.88672,8.09814,15.07471,15.23682,24.44727,20.3208c6.99854,3.79492,11.76807,4.75977,14.35352,12.62305  c1.10986,3.37109,4.67139,30.73047,11.14404,26.5c5.30469-3.46484-3.29297-21.08789-4.15625-25.625  c-0.44727-2.35156,0.18262-7.96875-1.05029-9.89648c-1.58984-2.48242-6.31543-3.01953-8.85156-4.17773  c-4.22412-1.93164-8.12354-4.61328-12.14014-6.92773c-15.32324-8.82422-26.35791-21.99316-36.72852-36.15967  c-3.06152-4.18213-6.28027-8.49316-9.09033-12.89893c-9.12793-14.30859-14.54297-30.47656-20.24365-46.32471  c-2.34668-6.52393-4.93604-12.4292-6.00635-19.31543c-0.75488-4.854,0.40771-11.18604-2.46387-15.48535  c-2.08936-3.12793-7.94922-7.2085-9.94629-1.82471c-3.0083,8.10547,4.99023,18.09961,8.21289,25.0918  C94.83765,148.36841,95.60962,150.09448,96.36157,151.82446z" id="path677"/>
<linearGradient id="XMLID_496_" gradientUnits="userSpaceOnUse" x1="87.42603" y1="335.41968" x2="149.20325" y2="301.91339" gradientTransform="matrix(1 0 0 -1 -0.05518 484.27881)">
	<stop offset="0" style="stop-color:#F7931D" id="stop680"/>
	<stop offset="0.16854" style="stop-color:#FFC20E" id="stop682"/>
	<stop offset="1" style="stop-color:#FFF200" id="stop684"/>
</linearGradient>
<path fill="url(#XMLID_496_)" d="M109.41675,151.13892c-0.53613-1.56689-1.0625-3.14746-1.58057-4.74463  c-3.04053-9.37451-6.99316-23.01514,0.74072-31.26904c3.6167-3.85742,9.86963-3.02246,11.625,2.52686  c1.65771,5.2417-3.76904,8.73486-5.22363,13.33936c-1.0498,3.32275-1.2832,6.86865-1.13867,10.3667  c0.46094,11.18213,3.71191,18.99609,8.01904,29.14258c4.70361,11.08252,10.25488,19.98096,17.23779,29.75342  c3.05615,4.27637,6.29297,7.75391,10.13525,11.24219c3.98877,3.62207,6.96777,8.2168,11.021,11.78174  c7.56592,6.65674,16.64502,11.17627,25.61035,15.61572c5.83545,2.88965,20.35645,7.37939,22.36816,14.1001  c0.64746,2.16406-0.12939,10.9043-3.3291,10.76172c-3.28369-0.14844-3.15137-7.73242-2.63037-9.78516  c-4.62891-5.4375-14.479-7.15625-20.75-10.22656c-5.91016-2.89209-11.37256-6.86865-17.06396-10.12842  c-18.75635-10.74365-33.41064-32.17139-42.56006-51.68213C117.09253,171.68872,113.03979,161.73022,109.41675,151.13892z" id="path686"/>
<linearGradient id="XMLID_497_" gradientUnits="userSpaceOnUse" x1="237.52222" y1="186.89624" x2="246.76392" y2="186.89624" gradientTransform="matrix(1 0 0 -1 -0.05518 484.27881)">
	<stop offset="0" style="stop-color:#F7931D" id="stop689"/>
	<stop offset="0.16854" style="stop-color:#FFC20E" id="stop691"/>
	<stop offset="1" style="stop-color:#FFF200" id="stop693"/>
</linearGradient>
<path fill="url(#XMLID_497_)" d="M243.83276,306.06421c1.19092-1.60938,2.06006-3.89844,2.33594-5.10547  c0.8418-3.67383,0.85303-8.06641-1.07959-11.4082c-0.51318-0.88477-1.17969-2.02734-2.15332-2.43945  c-4.1377-1.75195-5.41016,8.73828-5.45996,11.10742c-0.04932,2.36719-0.02637,9.84375,3.83496,9.62695  C242.23218,307.79468,243.09399,307.0603,243.83276,306.06421z" id="path695"/>
<path fill="#F7931D" d="M308.40845,86.86304c-3.0874,14.89893-2.68994,35.56055,9.10352,46.89404  c1.85547,1.78223,9.86914-7.00684,9.86914-7.00684l4.81445,4.81445l-9.80859,7.85889c0,0,17.05859,16.08496,36.55664,23.88379  c0,0-10.48047,52.88623,17.06055,80.42676c4.86914,4.86719,13.30859,7.0957,19.88086,8.09375  c3.6875,0.56055,8.03711,1.02148,11.67578-0.09766c3.56641-1.09766,6.13281-4.91797,9.86328-5.19336  c1.67383-0.12109,4.17578,0.7832,5.74805,1.25391c-9.41602,15.93164-40.58984,11.28125-51.72656,0.24805  c-16.91797-16.75879-19.97266-45.30322-21.27539-67.67139c0,0,0.27148-8.01514,1.94922-15.11035  c0,0-19.49609-7.79883-34.11914-22.42139c-6.43555-6.43506-11.18164-14.47754-13.94189-23.13379  c-1.78223-5.58545-0.84717-19.84961-7.00684-22.18311c-5.61279-2.12646-5.31885,1.89453-5.37305,6.69189  c-0.13428,11.92871,2.90771,24.61963,10.85889,33.63037c2.68262,3.04004,20.31836,16.32031,17.78906,19.99609  c-4.12598,5.99854-18.41455-11.39063-20.84814-14.02588c-2.24756-2.43311-7.3125-11.04688-11.33154-5.4834  c-1.73486,2.40088,0.09521,5.46045,1.4624,7.92139c6.92285,12.46094,22.89893,26.28711,36.17627,31.55908  c1.17578,0.4668,4.06055,0.74658,4.91211,1.66064c5.19531,5.58594,2.78906,19.27246,4.32422,26.34766  c3.35938,15.4707,6.66406,29.38965,16.65625,42.22021c4.5957,5.90039,10.01953,11.26758,16.28711,15.38281  c4.4707,2.93164,8.9043,7.53711,14.10156,9c10.0957,2.83789,21.30078-1.75391,30.37695-5.90039  c8.89063-4.06445,8.10938,2.87891,0.86133,6.39258c-5.9668,2.88867-12.125,5.23438-18.79102,5.80664  c-19.32031,1.66602-36.63867-12.77148-48.10156-26.67773c-11.67578-14.16748-15.97656-33.55127-19.16406-51.21094  c-0.79883-4.41064-0.47266-13.32031-3.02344-17.0752c-1.80273-2.65674-5.43164-3.13184-8.1748-4.4707  c-3.07715-1.5-11.73926-8.86328-15.1084-7.62744c-3.74805,1.39014-2.31445,6.13672-0.86816,8.24902  c3.66699,5.35742,12.37109,6.62793,15.41504,11.77197c0.32715,0.55273,0.08203,4.38281,0.10059,5.21777  c0.23926,11.00439,2.49121,23.80127,5.70215,34.29883c2.41602,7.89502,6.07813,14.90137,11.33203,21.32324  c4.0957,5.00781,12.42969,9.36719,13.18164,16.24805c-2.70117,0.10742-4.80664-2.41797-7.34375-2.48438  c-4.35352-0.11523-6.4707,8.77148-5.25977,12.02734c1.90234,5.11523,7.71289,4.0625,11.93359,4.9082  c5.875,1.17578,5.58203,4.33984-0.33789,5.9668c-3.68555,1.01172-8.53906,0.33984-12.16211-0.70117  c-8.81445-2.53711-17.22656-8.36523-22.8125-15.50586c-4.64063-5.92773-18.04688-27.01172-11.80566-34.60303  c4.71631-5.7373,10.9541,15.80615,12.30566,19.6167c2.34375,6.60547,6.32715,21.41211,16.3418,16.83008  c15.64258-7.15625-5.84961-30.50781-9.05469-39.47217c-4.84766-13.55762-3.37402-34.34277-14.72021-44.25684  c-9.51807-8.31592-21.63037-12.08594-29.65234-22.54541c-2.56152-3.3418-14.46484-26.99805-5.0957-24.44092  c4.77393,1.3042,7.4873,11.41064,9.19629,15.23486c2.52051,5.6416,5.58984,10.53271,11.87695,12.36377  c7.74365,2.25537,9.41357-2.79688,5.6123-8.875c-3.69873-5.91357-9.98193-9.8208-13.53662-15.8457  c-4.94873-8.396-8.34912-17.79883-9.10693-27.55615c-0.23047-2.95801,0.22852-13.1958,4.87061-11.81641  c2.75684,0.81982,2.521,8.85742,3.03467,11.47656c0.61426,3.13232,1.73926,13.33594,5.25537,14.00977  c6.79541,1.30322,1.80322-15.09229,1.43164-18.03271c-1.26416-9.99609-0.11426-20.38818,3.42725-29.82764  c1.0376-2.76367,4.43945-10.72412-1.94775-10.16455c-2.29639,0.20215-3.76611,3.55566-4.73828,5.36768  c-1.69434,3.15771-1.35645,9.14404-4.20215,11.52881c-7.05322,5.91162-3.45166-7.49805-2.9541-10.44922  c-7.12744-5.04004-11.97412,6.06689-14.39063,11.56299c-5.74121,13.06348-3.79053,27.47217-0.99951,40.98975  c0.73584,3.56494,0.78662,8.16797-3.53271,4.40283c-2.67529-2.3335-3.53955-9.90576-4.26514-13.1665  c-0.98242-4.4209-0.01025-9.29883-4.11621-11.53809c-6.8252-3.72119-8.38818,2.95801-11.35938,6.34033  c-2.79736,3.18262-7.41357,3.81592-9.28809-1.16504c-3.5376-9.39844,11.85547-8.03125,16.78857-10.33057  c5.82373-2.71484,6.08057-7.63574,7.88379-12.9917c1.96484-5.83887,4.45264-12.5542,7.60645-17.87793  c3.14844-5.31299,6.58154-12.04785,11.34717-16.58301c1.10889-1.05566,9.93115,1.26318,9.30957,2.02881  c-2.67334,3.2959-8.93359,9.21143-7.62549,10.81836c3.26611,4.01465,10.58154-4.11084,15.77002-8.75732l6.18799,1.11865  c-1.55957,1.43848-2.94727,3.01563-4.04395,4.80762c-0.91211,1.48779,5.98291,0.70898,6.91992,0.14258  c1.87354-1.13281,2.80566-1.99805,3.79492-2.51123c0.98877-0.51221,17.85938,4.98682,17.77344,5.2749  c-0.49609,1.65088-1.07617,3.27393-2.13672,4.48047c-3.41797-3.64648-9.72656-8.53613-14.35645-5.47607  c-3.37207,2.22754-9.83057,14.09912-8.57373,18.06641c3.86035,12.16553,8.38428-8.78516,10.39404-10.22119  c3.83887-2.74268,4.24707,0.36475,3.41113,3.89502C308.70239,85.49438,308.552,86.17212,308.40845,86.86304z" id="path697"/>
<linearGradient id="XMLID_498_" gradientUnits="userSpaceOnUse" x1="105.40454" y1="176.56812" x2="109.87674" y2="174.1425" gradientTransform="matrix(1 0 0 -1 -0.05518 484.27881)">
	<stop offset="0" style="stop-color:#F7931D" id="stop700"/>
	<stop offset="0.16854" style="stop-color:#FFC20E" id="stop702"/>
	<stop offset="1" style="stop-color:#FFF200" id="stop704"/>
</linearGradient>
<path fill="url(#XMLID_498_)" d="M110.76685,306.66382c-1.5625,0.63672-5.12939,0.85156-6.11963,2.36914  C102.09009,312.94897,111.11694,313.05249,110.76685,306.66382z" id="path706"/>
<path fill="#F7931D" d="M77.27954,307.98218" id="path708"/>
<path fill="#F7931D" d="M223.43872,366.6853c7.32666-4.33594,9.59717-15.71875,5.1626-22.88281  c-4.23047-6.83398-13.46045-4.77344-17.54248,1.2832C205.07349,353.9646,210.19604,374.52515,223.43872,366.6853z" id="path710"/>
<path fill="#004821" d="M225.73657,431.58179c-3.88965-1.45898-10.0542,1.17578-11.51221-2.88867  c-1.06348-2.96094,2.36816-7.75977,2.28174-10.95703c-0.16455-6.07617-2.31982-10.46484,1.13281-16.19531  c2.90576-4.82031,8.49121-9.04102,14.19434-9.62891c9.86475-1.01758,17.43408,4.68555,19.94775,14.10547  c3.14453,11.78125-9.45264,10.76953-15.54932,17.21094c-3.62451,3.83008-4.96094,8.21875-1.24414,12.59766  c-0.20557-0.24414-7.49902-3.49805-8.53662-3.95508C226.21655,431.76929,225.97876,431.67163,225.73657,431.58179z" id="path712"/>
<path fill="#6C9D31" d="M224.43823,434.69702c6.05566,2.3457,9.2334,7.45117,14.42871,10.91602  c-5.8501-12.41797,6.56494-17.53906,11.75928-26.02539c5.1123-8.35742-0.92725-23.57422-12.11328-20.89648  c-7.31055,1.74805-9.02148,9.5-12.19141,15.25586c-1.15869,2.10547-13.64795,19.90039-14.85059,18.53125  C214.12036,435.49585,220.7063,433.25171,224.43823,434.69702z" id="path714"/>
<path fill="#CADB2A" d="M436.3186,464.87866c-11.83789,2.70117-24.13867,3.92188-36.21484,4.88281  c-28.5,2.27148-57.26172,1.55664-85.63965-1.87695c-18.46924-2.23633-36.79639-5.6543-54.81689-10.28125  c-8.84863-2.27148-23.10693-4.75-26.38672-14.44336c-3.92139-11.59375,3.89063-13.22266,11.13574-19.69922  c7.22168-6.45703,5.94531-25.88281-7.17529-21.45703c-7.15234,2.41016-8.52637,8.88477-9.40869,15.25391  c-1.53467,11.08008-5.4873,21.73633-18.27881,19.75781c-15.68799-2.42383-27.72803-7.82813-41.63477-15.77344  c-16.10547-9.20508-31.39941-19.87891-45.33008-32.13867c-15.58643-13.71875-29.62256-29.46289-40.53369-47.17383  c-0.65869-1.06836-11.60303-19.73047-10.38525-20.46875c0.00293,0,11.39746-6.88867,11.40039-6.88867  c-1.5293,0.92383,7.93018,18.68164,8.55664,19.80273c11.40186,20.44727,27.55566,38.30469,46.3999,52.16602  c10.88232,8.00391,21.70459,16.28125,32.41113,24.49023c8.90771,6.82617,19.96338,16.5293,31.68066,17.39844  c8.2168,0.60938,15.22949-3.0293,17.78174-10.72461c2.30664-6.95703,2.46631-13.55469,8.07959-19.06641  c5.17627-5.08008,12.54443-6.86523,18.88477-2.73242c10.11426,6.5957,9.79346,22.60938,2.45068,31.08789  c-2.43799,2.81641-8.18164,4.48633-9.64941,7.9082c-2.98828,6.9707,7.35205,6.86523,11.22119,7.23438  c7.64453,0.73047,15.12842,3.89453,22.61768,5.60938c17.58252,4.02148,35.37207,7.17773,53.29102,9.26172  c29.80664,3.46289,60.04297,3.9707,89.86523,0.37891c6.12305-0.74023,12.22852-1.65039,18.29688-2.74414L436.3186,464.87866z" id="path716"/>
<path opacity="0.16" fill="#99DBF9" enable-background="new    " d="M82.71362,316.72827  c-23.5498-20.22852-35.64795-52.22461-41.73877-81.90869c-7.15625-34.87598-12.33789-72.47461-5.60352-107.93213  c2.96729-15.62158,6.0625-32.07764,11.78711-46.96045c5.70801-14.8418,17.50146-25.61865,26.90234-38.05762  c5.2334-6.9248,12.67627-17.92139,20.67871-21.93164c4.67334-2.34082,3.54053-1.81885,9.37451-1.42773  c18.06836,1.21387,216.31982,54.36621,216.00732,55.57422c-1.5,5.77588-3.53125,12.73145-3.2207,22.29883  c0.40332,12.41455,4.55273,24.99121,13.29102,34.05273c10.76367,11.16211,25.63867,14.14453,38.57227,21.49512" id="path718"/>
<path fill="#6C9D31" d="M82.16284,314.57202c0,0-64.87598-80.88428-49.2207-181.97266  C46.99536,41.8562,104.11401,18.51001,104.11401,18.51001l-10.56152-2.60352c0,0-56.71094,23.10693-73.28369,115.71826  c0,0-19.49707,89.74365,51.66748,188.66406L82.16284,314.57202z" id="path720"/>






<svg:switch style="font-size:13px;font-style:normal;font-variant:normal;font-weight:normal;font-stretch:normal;text-align:start;line-height:100%;writing-mode:lr-tb;text-anchor:start;fill:#000000;fill-opacity:1;stroke:none;stroke-width:1px;stroke-linecap:butt;stroke-linejoin:miter;stroke-opacity:1;font-family:Verdana;-inkscape-font-specification:Verdana"><svg:text sodipodi:linespacing="100%" id="text3434-fa" y="431.97632" x="48.37524" style="font-size:13px;font-style:normal;font-variant:normal;font-weight:normal;font-stretch:normal;text-align:start;line-height:100%;writing-mode:lr-tb;text-anchor:start;fill:#000000;fill-opacity:1;stroke:none;stroke-width:1px;stroke-linecap:butt;stroke-linejoin:miter;stroke-opacity:1;font-family:Verdana;-inkscape-font-specification:Verdana" xml:space="preserve" systemLanguage="fa"><svg:tspan y="431.97632" x="48.37524" id="tspan3438-fa" sodipodi:role="line"> </svg:tspan></svg:text><svg:text sodipodi:linespacing="100%" id="text3434" y="431.97632" x="48.37524" style="font-size:13px;font-style:normal;font-variant:normal;font-weight:normal;font-stretch:normal;text-align:start;line-height:100%;writing-mode:lr-tb;text-anchor:start;fill:#000000;fill-opacity:1;stroke:none;stroke-width:1px;stroke-linecap:butt;stroke-linejoin:miter;stroke-opacity:1;font-family:Verdana;-inkscape-font-specification:Verdana" xml:space="preserve"><svg:tspan y="431.97632" x="48.37524" id="tspan3438" sodipodi:role="line">Golgi apparatus</svg:tspan></svg:text></svg:switch>
<svg:switch style="font-size:13px;font-style:normal;font-variant:normal;font-weight:normal;font-stretch:normal;text-align:start;line-height:100%;writing-mode:lr-tb;text-anchor:start;fill:#000000;fill-opacity:1;stroke:none;stroke-width:1px;stroke-linecap:butt;stroke-linejoin:miter;stroke-opacity:1;font-family:Verdana;-inkscape-font-specification:Verdana"><svg:text xml:space="preserve" style="font-size:13px;font-style:normal;font-variant:normal;font-weight:normal;font-stretch:normal;text-align:start;line-height:100%;writing-mode:lr-tb;text-anchor:start;fill:#000000;fill-opacity:1;stroke:none;stroke-width:1px;stroke-linecap:butt;stroke-linejoin:miter;stroke-opacity:1;font-family:Verdana;-inkscape-font-specification:Verdana" x="444.5318" y="461.80737" id="text3440-fa" sodipodi:linespacing="100%" systemLanguage="fa"><svg:tspan y="461.80737" x="444.5318" id="tspan3444-fa" sodipodi:role="line"> </svg:tspan></svg:text><svg:text xml:space="preserve" style="font-size:13px;font-style:normal;font-variant:normal;font-weight:normal;font-stretch:normal;text-align:start;line-height:100%;writing-mode:lr-tb;text-anchor:start;fill:#000000;fill-opacity:1;stroke:none;stroke-width:1px;stroke-linecap:butt;stroke-linejoin:miter;stroke-opacity:1;font-family:Verdana;-inkscape-font-specification:Verdana" x="444.5318" y="461.80737" id="text3440" sodipodi:linespacing="100%"><svg:tspan y="461.80737" x="444.5318" id="tspan3444" sodipodi:role="line">Plasma membrane</svg:tspan></svg:text></svg:switch>


<path fill="none" stroke="#000000" stroke-width="0.97486" d="M320.81079,69.3728V44.51489c0,0,0.56445-10.8291,11.61133-12.77881  h80.91406l7.79883-4.87402l-0.97461,4.87402h133.55469c0,0,12.18555,4.87451,12.18555,16.08545v87.24951" id="path978"/>
<path d="M536.36743,174.03101" id="path980"/>
<polyline fill="none" stroke="#000000" stroke-width="0.97486" points="475.88501,270.7439 467.09985,234.92603   468.90063,238.01294 " id="polyline982"/>
<polyline fill="none" stroke="#000000" stroke-width="0.97486" points="531.94165,248.48022 510.16235,164.54224   511.48657,166.1521 " id="polyline984"/>

<path fill="none" stroke="#000000" stroke-width="0.97486" d="M272.63062,56.10767V35.31079c0,0-0.41016-4.22363,4.22412-4.22363  c6.8252,0,15.27295,0,15.27295,0l5.36182-5.36182l1.24707,5.36182h14.29688c0,0,5.74023,0.14453,4.76563,4.87402V68.4563" id="path1006"/>
<polyline fill="none" stroke="#000000" stroke-width="0.97486" points="432.92798,252.6228 431.20728,250.42944   453.30493,306.32007 387.01392,268.62671 389.43188,270.82593 " id="polyline1008"/>
<path fill="none" stroke="#000000" stroke-width="0.97486" d="M290.82837,321.91772l15.92188,15.92383  c0,0,11.13281,5.76563,15.27344,1.625l21.44727-12.99805l20.5918,0.85352l-12.14258-6.05273l19.49609-17.54688  c0,0,11.37305-6.82422,3.25-14.94922l-15.92188-15.92188" id="path1010"/>
<polyline fill="none" stroke="#000000" stroke-width="0.97486" points="439.41235,457.99194 411.38501,465.54858   413.90454,465.79077 " id="polyline1012"/>
<polyline fill="none" stroke="#000000" stroke-width="0.97486" points="100.40698,409.00562 141.35083,304.69702   140.83667,308.60132 " id="polyline1014"/>

<polyline fill="none" stroke="#000000" stroke-width="0.97486" points="223.58032,330.01343 220.31421,329.48804   364.59204,385.60913 241.13843,303.3689 243.802,304.02124 " id="polyline1050"/>
<polyline fill="none" stroke="#000000" stroke-width="0.97486" points="399.68774,415.82983 220.31421,355.38843   223.71069,355.74585 " id="polyline1052"/>
<rect x="0.00024" y="-0.00024" fill="none" width="612" height="485.97656" id="rect1054"/>
<svg:switch style="font-size:13px;font-style:normal;font-variant:normal;font-weight:normal;font-stretch:normal;text-align:start;line-height:100%;writing-mode:lr-tb;text-anchor:start;fill:#000000;fill-opacity:1;stroke:none;stroke-width:1px;stroke-linecap:butt;stroke-linejoin:miter;stroke-opacity:1;font-family:Verdana;-inkscape-font-specification:Verdana"><svg:text sodipodi:linespacing="100%" id="text3591-fa" y="422.03259" x="408.73453" style="font-size:13px;font-style:normal;font-variant:normal;font-weight:normal;font-stretch:normal;text-align:start;line-height:100%;writing-mode:lr-tb;text-anchor:start;fill:#000000;fill-opacity:1;stroke:none;stroke-width:1px;stroke-linecap:butt;stroke-linejoin:miter;stroke-opacity:1;font-family:Verdana;-inkscape-font-specification:Verdana" xml:space="preserve" systemLanguage="fa"><svg:tspan sodipodi:role="line" id="tspan3595-fa" x="408.73453" y="422.03259"></svg:tspan></svg:text><svg:text sodipodi:linespacing="100%" id="text3591" y="422.03259" x="408.73453" style="font-size:13px;font-style:normal;font-variant:normal;font-weight:normal;font-stretch:normal;text-align:start;line-height:100%;writing-mode:lr-tb;text-anchor:start;fill:#000000;fill-opacity:1;stroke:none;stroke-width:1px;stroke-linecap:butt;stroke-linejoin:miter;stroke-opacity:1;font-family:Verdana;-inkscape-font-specification:Verdana" xml:space="preserve"><svg:tspan sodipodi:role="line" id="tspan3595" x="408.73453" y="422.03259">Lysosome</svg:tspan></svg:text></svg:switch>
<svg:switch style="font-size:13px;font-style:normal;font-variant:normal;font-weight:normal;font-stretch:normal;text-align:start;line-height:100%;writing-mode:lr-tb;text-anchor:start;fill:#000000;fill-opacity:1;stroke:none;stroke-width:1px;stroke-linecap:butt;stroke-linejoin:miter;stroke-opacity:1;font-family:Verdana;-inkscape-font-specification:Verdana"><svg:text xml:space="preserve" style="font-size:13px;font-style:normal;font-variant:normal;font-weight:normal;font-stretch:normal;text-align:start;line-height:100%;writing-mode:lr-tb;text-anchor:start;fill:#000000;fill-opacity:1;stroke:none;stroke-width:1px;stroke-linecap:butt;stroke-linejoin:miter;stroke-opacity:1;font-family:Verdana;-inkscape-font-specification:Verdana" x="372.53949" y="386.63306" id="text3597-fa" sodipodi:linespacing="100%" systemLanguage="fa"><svg:tspan sodipodi:role="line" id="tspan3601-fa" x="372.53949" y="386.63306"></svg:tspan></svg:text><svg:text xml:space="preserve" style="font-size:13px;font-style:normal;font-variant:normal;font-weight:normal;font-stretch:normal;text-align:start;line-height:100%;writing-mode:lr-tb;text-anchor:start;fill:#000000;fill-opacity:1;stroke:none;stroke-width:1px;stroke-linecap:butt;stroke-linejoin:miter;stroke-opacity:1;font-family:Verdana;-inkscape-font-specification:Verdana" x="372.53949" y="386.63306" id="text3597" sodipodi:linespacing="100%"><svg:tspan sodipodi:role="line" id="tspan3601" x="372.53949" y="386.63306">Secretory vesicle</svg:tspan></svg:text></svg:switch>
<svg:switch style="font-size:13px;font-style:normal;font-variant:normal;font-weight:normal;font-stretch:normal;text-align:start;line-height:100%;writing-mode:lr-tb;text-anchor:start;fill:#000000;fill-opacity:1;stroke:none;stroke-width:1px;stroke-linecap:butt;stroke-linejoin:miter;stroke-opacity:1;font-family:Verdana;-inkscape-font-specification:Verdana"><svg:text sodipodi:linespacing="100%" id="text3603-fa" y="331.7439" x="368.95978" style="font-size:13px;font-style:normal;font-variant:normal;font-weight:normal;font-stretch:normal;text-align:start;line-height:100%;writing-mode:lr-tb;text-anchor:start;fill:#000000;fill-opacity:1;stroke:none;stroke-width:1px;stroke-linecap:butt;stroke-linejoin:miter;stroke-opacity:1;font-family:Verdana;-inkscape-font-specification:Verdana" xml:space="preserve" systemLanguage="fa"><svg:tspan sodipodi:role="line" id="tspan3607-fa" x="368.95978" y="331.7439">  </svg:tspan></svg:text><svg:text sodipodi:linespacing="100%" id="text3603" y="331.7439" x="368.95978" style="font-size:13px;font-style:normal;font-variant:normal;font-weight:normal;font-stretch:normal;text-align:start;line-height:100%;writing-mode:lr-tb;text-anchor:start;fill:#000000;fill-opacity:1;stroke:none;stroke-width:1px;stroke-linecap:butt;stroke-linejoin:miter;stroke-opacity:1;font-family:Verdana;-inkscape-font-specification:Verdana" xml:space="preserve"><svg:tspan sodipodi:role="line" id="tspan3607" x="368.95978" y="331.7439">Smooth endoplasmic reticulum</svg:tspan></svg:text></svg:switch>
<svg:switch style="font-size:13px;font-style:normal;font-variant:normal;font-weight:normal;font-stretch:normal;text-align:start;line-height:100%;writing-mode:lr-tb;text-anchor:start;fill:#000000;fill-opacity:1;stroke:none;stroke-width:1px;stroke-linecap:butt;stroke-linejoin:miter;stroke-opacity:1;font-family:Verdana;-inkscape-font-specification:Verdana"><svg:text sodipodi:linespacing="100%" id="text3609-fa" y="310.26553" x="457.65747" style="font-size:13px;font-style:normal;font-variant:normal;font-weight:normal;font-stretch:normal;text-align:start;line-height:100%;writing-mode:lr-tb;text-anchor:start;fill:#000000;fill-opacity:1;stroke:none;stroke-width:1px;stroke-linecap:butt;stroke-linejoin:miter;stroke-opacity:1;font-family:Verdana;-inkscape-font-specification:Verdana" xml:space="preserve" systemLanguage="fa"><svg:tspan sodipodi:role="line" id="tspan3613-fa" x="457.65747" y="310.26553"></svg:tspan></svg:text><svg:text sodipodi:linespacing="100%" id="text3609" y="310.26553" x="457.65747" style="font-size:13px;font-style:normal;font-variant:normal;font-weight:normal;font-stretch:normal;text-align:start;line-height:100%;writing-mode:lr-tb;text-anchor:start;fill:#000000;fill-opacity:1;stroke:none;stroke-width:1px;stroke-linecap:butt;stroke-linejoin:miter;stroke-opacity:1;font-family:Verdana;-inkscape-font-specification:Verdana" xml:space="preserve"><svg:tspan sodipodi:role="line" id="tspan3613" x="457.65747" y="310.26553">Ribosomes</svg:tspan></svg:text></svg:switch>
<svg:switch style="font-size:13px;font-style:normal;font-variant:normal;font-weight:normal;font-stretch:normal;text-align:start;line-height:100%;writing-mode:lr-tb;text-anchor:start;fill:#000000;fill-opacity:1;stroke:none;stroke-width:1px;stroke-linecap:butt;stroke-linejoin:miter;stroke-opacity:1;font-family:Verdana;-inkscape-font-specification:Verdana"><svg:text xml:space="preserve" style="font-size:13px;font-style:normal;font-variant:normal;font-weight:normal;font-stretch:normal;text-align:start;line-height:100%;writing-mode:lr-tb;text-anchor:start;fill:#000000;fill-opacity:1;stroke:none;stroke-width:1px;stroke-linecap:butt;stroke-linejoin:miter;stroke-opacity:1;font-family:Verdana;-inkscape-font-specification:Verdana" x="458.45297" y="285.20746" id="text3615-fa" sodipodi:linespacing="100%" systemLanguage="fa"><svg:tspan sodipodi:role="line" id="tspan3619-fa" x="458.45297" y="285.20746"> </svg:tspan></svg:text><svg:text xml:space="preserve" style="font-size:13px;font-style:normal;font-variant:normal;font-weight:normal;font-stretch:normal;text-align:start;line-height:100%;writing-mode:lr-tb;text-anchor:start;fill:#000000;fill-opacity:1;stroke:none;stroke-width:1px;stroke-linecap:butt;stroke-linejoin:miter;stroke-opacity:1;font-family:Verdana;-inkscape-font-specification:Verdana" x="458.45297" y="285.20746" id="text3615" sodipodi:linespacing="100%"><svg:tspan sodipodi:role="line" id="tspan3619" x="458.45297" y="285.20746">Nuclear pore</svg:tspan></svg:text></svg:switch>
<svg:switch style="font-size:13px;font-style:normal;font-variant:normal;font-weight:normal;font-stretch:normal;text-align:start;line-height:100%;writing-mode:lr;text-anchor:start;fill:#000000;fill-opacity:1;stroke:none;stroke-width:1px;stroke-linecap:butt;stroke-linejoin:miter;stroke-opacity:1;font-family:Verdana;-inkscape-font-specification:Verdana"><svg:text sodipodi:linespacing="100%" id="text3621-fa" y="263.33133" x="486.69305" style="font-size:13px;font-style:normal;font-variant:normal;font-weight:normal;font-stretch:normal;text-align:start;line-height:100%;writing-mode:lr;text-anchor:start;fill:#000000;fill-opacity:1;stroke:none;stroke-width:1px;stroke-linecap:butt;stroke-linejoin:miter;stroke-opacity:1;font-family:Verdana;-inkscape-font-specification:Verdana" xml:space="preserve" systemLanguage="fa"><svg:tspan sodipodi:role="line" id="tspan3625-fa"> </svg:tspan></svg:text><svg:text sodipodi:linespacing="100%" id="text3621" y="263.33133" x="486.69305" style="font-size:13px;font-style:normal;font-variant:normal;font-weight:normal;font-stretch:normal;text-align:start;line-height:100%;writing-mode:lr;text-anchor:start;fill:#000000;fill-opacity:1;stroke:none;stroke-width:1px;stroke-linecap:butt;stroke-linejoin:miter;stroke-opacity:1;font-family:Verdana;-inkscape-font-specification:Verdana" xml:space="preserve"><svg:tspan sodipodi:role="line" id="tspan3625">Nuclear envelope</svg:tspan></svg:text></svg:switch>
<svg:switch style="font-size:13px;font-style:normal;font-variant:normal;font-weight:normal;font-stretch:normal;text-align:start;line-height:100%;writing-mode:lr-tb;text-anchor:start;fill:#000000;fill-opacity:1;stroke:none;stroke-width:1px;stroke-linecap:butt;stroke-linejoin:miter;stroke-opacity:1;font-family:Verdana;-inkscape-font-specification:Verdana"><svg:text xml:space="preserve" style="font-size:13px;font-style:normal;font-variant:normal;font-weight:normal;font-stretch:normal;text-align:start;line-height:100%;writing-mode:lr-tb;text-anchor:start;fill:#000000;fill-opacity:1;stroke:none;stroke-width:1px;stroke-linecap:butt;stroke-linejoin:miter;stroke-opacity:1;font-family:Verdana;-inkscape-font-specification:Verdana" x="407.54129" y="21.153959" id="text3627-fa" sodipodi:linespacing="100%" systemLanguage="fa"><svg:tspan sodipodi:role="line" id="tspan3631-fa" x="407.54129" y="21.153959"></svg:tspan></svg:text><svg:text xml:space="preserve" style="font-size:13px;font-style:normal;font-variant:normal;font-weight:normal;font-stretch:normal;text-align:start;line-height:100%;writing-mode:lr-tb;text-anchor:start;fill:#000000;fill-opacity:1;stroke:none;stroke-width:1px;stroke-linecap:butt;stroke-linejoin:miter;stroke-opacity:1;font-family:Verdana;-inkscape-font-specification:Verdana" x="407.54129" y="21.153959" id="text3627" sodipodi:linespacing="100%"><svg:tspan sodipodi:role="line" id="tspan3631" x="407.54129" y="21.153959">Nucleus</svg:tspan></svg:text></svg:switch>
<svg:switch style="font-size:13px;font-style:normal;font-variant:normal;font-weight:normal;font-stretch:normal;text-align:start;line-height:100%;writing-mode:lr-tb;text-anchor:start;fill:#000000;fill-opacity:1;stroke:none;stroke-width:1px;stroke-linecap:butt;stroke-linejoin:miter;stroke-opacity:1;font-family:Verdana;-inkscape-font-specification:Verdana"><svg:text sodipodi:linespacing="100%" id="text3633-fa" y="19.909819" x="168.49501" style="font-size:13px;font-style:normal;font-variant:normal;font-weight:normal;font-stretch:normal;text-align:start;line-height:100%;writing-mode:lr-tb;text-anchor:start;fill:#000000;fill-opacity:1;stroke:none;stroke-width:1px;stroke-linecap:butt;stroke-linejoin:miter;stroke-opacity:1;font-family:Verdana;-inkscape-font-specification:Verdana" xml:space="preserve" systemLanguage="fa"><svg:tspan sodipodi:role="line" id="tspan3637-fa" x="168.49501" y="19.909819">  </svg:tspan></svg:text><svg:text sodipodi:linespacing="100%" id="text3633" y="19.909819" x="168.49501" style="font-size:13px;font-style:normal;font-variant:normal;font-weight:normal;font-stretch:normal;text-align:start;line-height:100%;writing-mode:lr-tb;text-anchor:start;fill:#000000;fill-opacity:1;stroke:none;stroke-width:1px;stroke-linecap:butt;stroke-linejoin:miter;stroke-opacity:1;font-family:Verdana;-inkscape-font-specification:Verdana" xml:space="preserve"><svg:tspan sodipodi:role="line" id="tspan3637" x="168.49501" y="19.909819">Rough endoplasmic reticulum</svg:tspan></svg:text></svg:switch>
</svg>
