<?xml version="1.0" encoding="utf-8"?>
<!-- Generator: Adobe Illustrator 24.2.3, SVG Export Plug-In . SVG Version: 6.00 Build 0)  -->
<svg version="1.1" id="Layer_1" xmlns="http://www.w3.org/2000/svg" xmlns:xlink="http://www.w3.org/1999/xlink" x="0px" y="0px"
	 viewBox="0 0 800 800" style="enable-background:new 0 0 800 800;" xml:space="preserve">
<style type="text/css">
	.st0{fill:#CCCCCC;}
	.st1{fill:url(#SVGID_1_);}
	.st2{fill:url(#SVGID_2_);}
	.st3{fill:url(#SVGID_3_);}
	.st4{fill:url(#g_3_);}
	.st5{fill:none;stroke:#FDFFBD;stroke-width:10;stroke-linecap:round;stroke-linejoin:round;}
	.st6{fill:url(#g_4_);}
	.st7{fill:#F9F9F9;stroke:#666666;stroke-width:3;}
	.st8{fill:url(#g_5_);}
	.st9{font-family:'MinionPro-Capt';}
	.st10{font-size:36px;}
	.st11{fill:none;stroke:#000000;stroke-width:2;stroke-miterlimit:10;}
</style>
<circle class="st0" cx="400" cy="400" r="333.1"/>
<linearGradient id="SVGID_1_" gradientUnits="userSpaceOnUse" x1="6.2634" y1="894.3972" x2="65.2694" y2="941.2672" gradientTransform="matrix(1.7742 0 0 -1.7787 510.5252 1928.9652)">
	<stop  offset="0" style="stop-color:#CB0000"/>
	<stop  offset="1" style="stop-color:#FFAEAE"/>
</linearGradient>
<circle class="st1" cx="559.6" cy="307.9" r="109.5"/>
<linearGradient id="SVGID_2_" gradientUnits="userSpaceOnUse" x1="6.2771" y1="894.3799" x2="65.2831" y2="941.25" gradientTransform="matrix(1.7742 0 0 -1.7787 350.9252 2205.1653)">
	<stop  offset="0" style="stop-color:#00AA00"/>
	<stop  offset="1" style="stop-color:#00FF00"/>
</linearGradient>
<circle class="st2" cx="400" cy="584.1" r="109.5"/>
<linearGradient id="SVGID_3_" gradientUnits="userSpaceOnUse" x1="6.2634" y1="894.3972" x2="65.2694" y2="941.2672" gradientTransform="matrix(1.7742 0 0 -1.7787 191.4252 1928.9652)">
	<stop  offset="0" style="stop-color:#0000B5"/>
	<stop  offset="1" style="stop-color:#9999FF"/>
</linearGradient>
<circle class="st3" cx="240.5" cy="307.9" r="109.5"/>
<radialGradient id="g_3_" cx="-21.378" cy="913.4727" r="62.0188" gradientTransform="matrix(0.9213 0 0 -0.9213 463.1259 1382.2908)" gradientUnits="userSpaceOnUse">
	<stop  offset="0" style="stop-color:#FFFFFF"/>
	<stop  offset="1" style="stop-color:#FFFFFF;stop-opacity:0"/>
</radialGradient>
<circle id="g" class="st4" cx="443.4" cy="540.7" r="66.1"/>
<path id="a" class="st5" d="M467.5,325.4c0,0-3.1-7.5-7-17.5s-7.8-20.1-12.2-20.1c-4.4,0-8.3,10-12.2,20.1
	c-3.9,10-7.8,20.1-12.2,20.1c-4.4,0-8.3-10-12.2-20.1c-3.9-10-7.8-20.1-12.2-20.1c-4.4,0-8.3,10-12.2,20.1
	c-3.9,10-7.8,20.1-12.2,20.1c-4.4,0-8.3-10-12.2-20.1c-3.9-10-7.8-20.1-12.2-20.1c-4.4,0-8.3,10-12.2,20.1c-3.9,10-6,17.1-6,17.1"/>
<g transform="translate(159.6 -276.25)">
	
		<radialGradient id="g_4_" cx="-21.378" cy="913.4727" r="62.0188" gradientTransform="matrix(0.9213 0 0 -0.9213 622.726 1106.0408)" gradientUnits="userSpaceOnUse">
		<stop  offset="0" style="stop-color:#FFFFFF"/>
		<stop  offset="1" style="stop-color:#FFFFFF;stop-opacity:0"/>
	</radialGradient>
	<circle id="g_1_" class="st6" cx="603" cy="264.4" r="66.1"/>
</g>
<g transform="translate(319.16 -.0012354)">
	<path id="b" class="st7" d="M581.1,352.6l1.1-17l-5.5,6c-4.3,4.7-8.7,8-13.2,10c-4.4,1.9-10,2.8-16.5,2.8c-5.6,0-10.5-1.2-14.6-3.6
		c-4.1-2.4-7-5.5-8.9-9.2c-1.8-3.8-2.7-9.9-2.7-18.1c0-4.3,0.1-9.2,0.3-14.9l0.3-15.2c0-10.6-0.3-16.5-0.9-17.7
		c-0.6-1.2-2.5-1.8-5.9-1.8H506v-5.2c8.5-0.8,16.4-2.3,23.6-4.7l7.8-2.9c1.1,0,1.6,0.8,1.6,2.4l-0.7,9.6
		c-0.9,13.3-1.3,25.7-1.3,37.1c0,11.4,0.5,18.8,1.4,22c0.9,3.1,2.9,5.8,5.9,7.9c3,2.1,6.7,3.1,11,3.1c5.8,0,11.1-1.9,16-5.7
		c4.9-3.8,8.1-7.6,9.6-11.4c0.8-2.2,1.2-8.8,1.2-19.9c0-18.6-0.3-28.7-1-30.3c-0.6-1.3-3.4-2-8.5-2h-7.4v-5.2
		c6.4-0.8,11.9-1.6,16.4-2.6c4.5-1,9.3-2.5,14.3-4.5c0.6-0.3,1.2-0.5,1.7-0.5c1.1,0,1.6,0.6,1.6,1.8l-0.4,8.8
		c-0.9,21.5-1.4,40.4-1.4,56.7c0,9.2,0.5,14.4,1.4,15.7c1.4,1.9,4.4,2.9,8.9,2.9h5.4v5.5c-7.8-0.4-14.5-0.7-19.9-0.7
		C589.2,352,585.1,352.2,581.1,352.6L581.1,352.6z"/>
</g>
<g transform="rotate(120 399.9 399.83)">
	<path id="a_1_" class="st5" d="M430.6,495.6c0,0,8,1.1,18.6,2.7c10.6,1.6,21.3,3.3,23.5-0.5c2.2-3.8-4.5-12.2-11.3-20.6
		c-6.7-8.4-13.5-16.8-11.3-20.6c2.2-3.8,12.8-2.2,23.5-0.5c10.6,1.6,21.3,3.3,23.5-0.5c2.2-3.8-4.5-12.2-11.3-20.6
		c-6.7-8.4-13.5-16.8-11.3-20.6c2.2-3.8,12.8-2.2,23.5-0.5c10.6,1.6,21.3,3.3,23.5-0.5c2.2-3.8-4.5-12.2-11.3-20.6
		c-6.7-8.4-11.8-13.7-11.8-13.7"/>
</g>
<g transform="rotate(240 400.15 399.82)">
	<path id="a_2_" class="st5" d="M302,378.7c0,0-4.9,6.4-11.7,14.8s-13.5,16.8-11.3,20.6c2.2,3.8,12.8,2.2,23.5,0.5
		c10.6-1.6,21.3-3.3,23.5,0.5c2.2,3.8-4.5,12.2-11.3,20.6c-6.7,8.4-13.5,16.8-11.3,20.6c2.2,3.8,12.8,2.2,23.5,0.5
		c10.6-1.6,21.3-3.3,23.5,0.5c2.2,3.8-4.5,12.2-11.3,20.6c-6.7,8.4-13.5,16.8-11.3,20.6c2.2,3.8,12.8,2.2,23.5,0.5
		c10.6-1.6,17.8-3.4,17.8-3.4"/>
</g>
<path class="st7" d="M420.3,568.3v-34.1c0-4-0.4-6.4-1.3-7.4c-0.9-1-2.9-1.5-6-1.5h-8.1v-5.7c11.1-0.8,21.5-3.1,31.2-7l1.7,1.1
	c-0.4,6.4-0.8,14.1-1.1,23.2l-0.4,25.1l-0.2,8.1v56.3c0,10.5,0.3,16.3,0.9,17.5c0.9,1.7,3.5,2.8,7.8,3.4l6.7,0.8v5.6
	c-7.7-0.6-14.5-0.8-20.4-0.8c-1.1,0-5,0.3-11.8,0.8c0.4-4.3,0.8-10.3,1-18.2c-5.3,4.1-12.1,10-20.4,17.4c-5.3,1.8-10,2.6-14.1,2.6
	c-10.6,0-19.4-4-26.6-12c-7.1-8-10.7-18.7-10.7-32c0-8.4,1.4-15.5,4.1-21.4c2.8-5.9,6-10.2,9.9-12.8c3.8-2.7,9.8-6.1,17.8-10.2
	c6.2-3.1,11.9-4.6,17.2-4.6c3.6,0,7.2,0.5,11,1.4C412.4,564.9,416.3,566.4,420.3,568.3L420.3,568.3z M420.3,584.5
	c-4.3-4.6-8.8-8.1-13.5-10.5c-4.6-2.3-9.5-3.5-14.6-3.5c-8.2,0-14.8,3-19.8,9c-5,6-7.5,14.7-7.5,26.3c0,11.8,2.8,21,8.5,27.7
	c5.8,6.7,12.7,10,20.9,10c5,0,9.6-1.4,13.8-4.1c4.2-2.8,7.3-6.5,9.2-10.9c1.9-4.5,2.9-11.5,2.9-21L420.3,584.5z"/>
<g transform="translate(-159.5 -276.25)">
	
		<radialGradient id="g_5_" cx="-21.378" cy="913.4727" r="62.0188" gradientTransform="matrix(0.9213 0 0 -0.9213 303.6259 1106.0408)" gradientUnits="userSpaceOnUse">
		<stop  offset="0" style="stop-color:#FFFFFF"/>
		<stop  offset="1" style="stop-color:#FFFFFF;stop-opacity:0"/>
	</radialGradient>
	<circle id="g_2_" class="st8" cx="283.9" cy="264.4" r="66.1"/>
</g>
<path id="b_1_" class="st7" d="M261.9,352.6l1.1-17l-5.5,6c-4.3,4.7-8.7,8-13.2,10c-4.4,1.9-10,2.8-16.5,2.8
	c-5.6,0-10.5-1.2-14.6-3.6c-4.1-2.4-7-5.5-8.9-9.2c-1.8-3.8-2.7-9.9-2.7-18.1c0-4.3,0.1-9.2,0.3-14.9l0.3-15.2
	c0-10.6-0.3-16.5-0.9-17.7c-0.6-1.2-2.5-1.8-5.9-1.8h-8.4v-5.2c8.5-0.8,16.4-2.3,23.6-4.7l7.8-2.9c1.1,0,1.6,0.8,1.6,2.4l-0.7,9.6
	c-0.9,13.3-1.3,25.7-1.3,37.1c0,11.4,0.5,18.8,1.4,22c0.9,3.1,2.9,5.8,5.9,7.9c3,2.1,6.7,3.1,11,3.1c5.8,0,11.1-1.9,16-5.7
	c4.9-3.8,8.1-7.6,9.6-11.4c0.8-2.2,1.2-8.8,1.2-19.9c0-18.6-0.3-28.7-1-30.3c-0.6-1.3-3.4-2-8.5-2H246v-5.2
	c6.4-0.8,11.9-1.6,16.4-2.6c4.5-1,9.3-2.5,14.3-4.5c0.6-0.3,1.2-0.5,1.7-0.5c1.1,0,1.6,0.6,1.6,1.8l-0.4,8.8
	c-0.9,21.5-1.4,40.4-1.4,56.7c0,9.2,0.5,14.4,1.4,15.7c1.4,1.9,4.4,2.9,8.9,2.9h5.4v5.5c-7.8-0.4-14.5-0.7-19.9-0.7
	C270,352,266,352.2,261.9,352.6L261.9,352.6z"/>
<text transform="matrix(1 0 0 1 541 529)" class="st9 st10">Quarks</text>
<text transform="matrix(1 0 0 1 327.9086 184.2078)" class="st9 st10">Gluons</text>
<g>
	<g>
		<path class="st11" d="M443.4,179c2.4,5.9,9.2,24.7,2.6,47c-6,20.2-19.7,32.5-29.5,39.1"/>
		<g>
			<path d="M406,271c3.9-4.7,8.2-11.3,10.1-16.8l1.8,10l7.7,6.5C419.9,269.6,412,270,406,271z"/>
		</g>
	</g>
</g>
<g>
	<g>
		<path class="st11" d="M657,512.6c5.1-7.5,16.7-26.7,17-53.6c0.3-24.3-8.7-43.1-15.9-54.3"/>
		<g>
			<path d="M651,395c5,3.4,12,7,17.7,8.4l-9.7,2.7l-5.7,8.3C653.8,408.7,652.6,400.8,651,395z"/>
		</g>
	</g>
</g>
<g>
	<g>
		<path class="st11" d="M641,547c-4.4,8.1-20.8,36.1-56,50c-20.1,7.9-38.6,8.2-51.1,6.9"/>
		<g>
			<path d="M522,602c5.9-1.2,13.4-3.8,18.3-6.9l-4.8,8.9l2,9.9C533.7,609.5,527.3,604.9,522,602z"/>
		</g>
	</g>
</g>
</svg>
